<mxfile host="app.diagrams.net" modified="2022-03-23T10:40:17.103Z" agent="5.0 (Macintosh; Intel Mac OS X 10_15_4) AppleWebKit/605.1.15 (KHTML, like Gecko) Version/13.1 Safari/605.1.15" etag="iM78nqoreJg9G202IhYV" version="17.1.5" type="github">
  <diagram id="v3KZ9E_VZoVIx0FfCzgH" name="Page-1">
    <mxGraphModel dx="836" dy="940" grid="1" gridSize="10" guides="1" tooltips="1" connect="1" arrows="1" fold="1" page="1" pageScale="1" pageWidth="827" pageHeight="1169" math="0" shadow="0">
      <root>
        <mxCell id="0" />
        <mxCell id="1" parent="0" />
        <mxCell id="LSXB3r_5FRirlL14GcBj-8" value="&lt;font style=&quot;font-size: 20px&quot;&gt;&lt;br&gt;&lt;/font&gt;" style="whiteSpace=wrap;html=1;rounded=1;arcSize=2;shadow=0;glass=0;dashed=1;comic=0;strokeColor=#d6b656;strokeWidth=4;fillColor=#fff2cc;fontSize=16;align=center;labelPosition=center;verticalLabelPosition=middle;verticalAlign=top;fontStyle=0;horizontal=1;spacingLeft=0;connectable=0;container=1;collapsible=0;recursiveResize=0;dashPattern=4 3 4 3 4 3 10 3;" vertex="1" parent="1">
          <mxGeometry x="100" y="60" width="710" height="570" as="geometry" />
        </mxCell>
        <mxCell id="LSXB3r_5FRirlL14GcBj-31" value="" style="rounded=1;whiteSpace=wrap;html=1;strokeColor=#999;fillColor=#f7f7f7;shadow=0;dashed=1;fontSize=22;fontStyle=0;align=left;verticalAlign=bottom;strokeWidth=2;glass=0;spacingLeft=0;arcSize=2;container=1;collapsible=0;recursiveResize=0;dashPattern=0 10 3 1 1 1 1 3 3 1 3 1 3 3 3 1 1 1 3 1 1 3 3 1 1 1 3 3 1 3 1 1 3 1 1 8 3 1 1 1 3 1 1 3 3 1 3 1 3 3 3 1 3 3 1 1 3 1 3 3 3 1 3 1 3 3 1 1 1 1 1 3 1 0;sketch=0;fontColor=#5AA9E6;" vertex="1" parent="LSXB3r_5FRirlL14GcBj-8">
          <mxGeometry x="20" y="250" width="469" height="270" as="geometry">
            <mxRectangle x="520" y="1140" width="50" height="40" as="alternateBounds" />
          </mxGeometry>
        </mxCell>
        <mxCell id="LSXB3r_5FRirlL14GcBj-32" value="&lt;font size=&quot;1&quot;&gt;&lt;span style=&quot;font-size: 12px&quot;&gt;&lt;br&gt;&lt;/span&gt;&lt;/font&gt;" style="fontColor=#000000;verticalAlign=middle;verticalLabelPosition=middle;labelPosition=right;align=left;html=1;outlineConnect=0;fillColor=#d6d6d6;strokeColor=#999;gradientColor=none;gradientDirection=north;strokeWidth=2;shape=stencil(fZFNbsMgEIVPwzKIQNKuIyde5RIEU2zFZhDgkN6+g8dV5UiNxOLNN4/5Aaaa1OtgmRQ6BWsyU2cm5UPHQd9GxBIzPcG9FBR7PVlCZzB3GxE1MAVItcwVHJCtbK6pCxMnVrX4E6r5gmhdhNl3G8eL79c9TNrVJikaKt7nHBJT6GvxDHteAjcwoS6l8G4ZbwW3EVzlYWfAZ+szBnMYQXcJlRS1Rytw8HZdhgfvaJMnNdsJLj+JfK/k43VVfjxsH01JiuuEbzZUDRr+eQwUS5p+asn8AA==);labelBackgroundColor=none;aspect=fixed;spacingLeft=0;rounded=0;sketch=0;" vertex="1" parent="LSXB3r_5FRirlL14GcBj-31">
          <mxGeometry x="126" y="4" width="20" height="20" as="geometry" />
        </mxCell>
        <mxCell id="LSXB3r_5FRirlL14GcBj-33" value="" style="fontColor=#000000;verticalAlign=middle;verticalLabelPosition=middle;labelPosition=right;align=left;html=1;outlineConnect=0;fillColor=#d6d6d6;strokeColor=#999;gradientColor=none;gradientDirection=north;strokeWidth=2;shape=stencil(fVHJCsMgEP0ajwmJdqHHkjan/kOYqFlooqLp9vcdM4SSQgui8xb0zchEETpwmvEMgtNyYuLEOL+D76EekOaodETmPCNsYNREnay8ao/UxbaWxMfKLM4sO7JYZ59CFI31uvX2ZtTK8eVb3P0IbUwYvKTLu2lygQn0lbikMpu0l9Y0vVHap9KOyCqYAI/IBzwHDBgSMCqpPe6R2uaYtzzsK+qiipaKfCilzrTU0ZMeTXYEX2u49Cv4elgLjhn/9CgKNPwYBxazTD80K28=);labelBackgroundColor=none;rounded=0;sketch=0;" vertex="1" parent="LSXB3r_5FRirlL14GcBj-31">
          <mxGeometry x="410" width="59" height="60" as="geometry" />
        </mxCell>
        <mxCell id="LSXB3r_5FRirlL14GcBj-34" value="" style="fontColor=#000000;verticalAlign=middle;verticalLabelPosition=middle;labelPosition=right;align=left;html=1;outlineConnect=0;fillColor=#d6d6d6;strokeColor=#999;gradientColor=none;gradientDirection=north;strokeWidth=2;shape=stencil(fVHbDsIgDP0aXpcJX2Dm5cV/MB12jGTAQvH293ZWs2yJJgROzzmFtijTUA8jKl0DjWiLMjul9Q2yh3ZgWrPSC7nRtcQRAgp1zNBBBOZOySVR7wu32at6qyZcz8A0XcrocrrGy8Kx8n3dPoCbSqRs5fK+lJGUYd+Bl5MqKpsCR1SgeMsAiLAQAx8c7+2QpqP4gNT7rsyJ54wDAuHZ2xSrMTpp5CFvfZp+LqL7aiTrEU2F/WnMNGz4MQMGb1n+5a28AA==);labelBackgroundColor=none;rounded=0;sketch=0;" vertex="1" parent="LSXB3r_5FRirlL14GcBj-31">
          <mxGeometry x="20" y="90" width="50" height="50" as="geometry" />
        </mxCell>
        <mxCell id="LSXB3r_5FRirlL14GcBj-35" value="" style="fontColor=#000000;verticalAlign=middle;verticalLabelPosition=middle;labelPosition=right;align=left;html=1;outlineConnect=0;fillColor=#d6d6d6;strokeColor=#999;gradientColor=none;gradientDirection=north;strokeWidth=2;shape=stencil(ZZBRDsIgDIZPwyPLhBOo08TESxSZQMKAAHPz9pahD8yEEPr9Lf1bws9JQxgJ6yGF8ZEJHwhjL4gGhEXMUNEVHlhfYwfTWNHNPe28DieEd698lZcmnV9IfyTl3RN+fvo4quhnJxvhJ5sJVPGS4qN+onMOiXDMu+IxWzsJGTplsp5FZ7DnVURw0jhVMqZyS78460GmpoZatEhpek/CW0qDxxts0NCFUlusr7Xrd853Ey27Ley3Uiy2wyL5m3ejdeUb+AA=);labelBackgroundColor=none;rounded=0;sketch=0;" vertex="1" parent="LSXB3r_5FRirlL14GcBj-31">
          <mxGeometry x="20" y="150" width="50" height="50" as="geometry" />
        </mxCell>
        <mxCell id="LSXB3r_5FRirlL14GcBj-43" value="" style="fontColor=#000000;verticalAlign=middle;verticalLabelPosition=middle;labelPosition=right;align=left;html=1;outlineConnect=0;fillColor=#d6d6d6;strokeColor=#999;gradientColor=none;gradientDirection=north;strokeWidth=2;shape=stencil(fVBbDsIgEDwNvw3CCUzVD+MlEClgeAXQ2tu7dGtMm2jCx+zMZJlZwvtiRFKEUVGSkpXwA2HsKbIVVwc0A8UguWMU5yC8QuqsnJsGG4C8RB1RHld2fiR0TxqmX8D7IWalc3yE28qx8X3c1gvdMpYscbmpNRXCwXeCJ1Iq3X3J0sWsgZMmR6+kKBUG6xvlIGKXgsaYL9y0dJpW07hpvL1A+/ZPbN6D4UdDALOMZ5+VNw==);labelBackgroundColor=none;rounded=0;sketch=0;" vertex="1" parent="LSXB3r_5FRirlL14GcBj-31">
          <mxGeometry x="120" y="90" width="50" height="50" as="geometry" />
        </mxCell>
        <mxCell id="LSXB3r_5FRirlL14GcBj-23" value="" style="fontColor=#000000;verticalAlign=middle;verticalLabelPosition=middle;labelPosition=right;align=left;html=1;outlineConnect=0;fillColor=#d6d6d6;strokeColor=#999;gradientColor=none;gradientDirection=north;strokeWidth=2;shape=stencil(VHzXtqM8E+XTfPdgguHSJmeTwx0mmJzz049kn/5nptfq7mNQKFXYtUuSz38YMxfxkP13Q+J5yJLlP4z973bb4qmM3w14fANvit9D9Ib8Pndxm/0eDbmddTPsrfaf/vd2//9aY9x/yOM/+DPyH8bk/ZR9pn7t0v/vxb/XZRt/4GDzlPwGSeMl/g97/D3nh+7zH/Z8x3NG4v/dmNJ7GtaOKMKnf4A/uu0WnPsBPyHwH11iHiH4n6UJCvR9Px5PK0MazvQs/LZiKUs5AQ1ewJf/3Z5TXduRbGAICT7ndX1q1yLXrdnadhbJehu1UadFQtK2Hna/bNuWZa1GqKYeKu2qwQB1XRONJhOYdpXuddqWXJfgb7ODdxuVTigYd70cEsXI+7hiHZ1ddF6lay7cQYsc/oMBPfAY+AH8h2bTmd2pjIYybnRWwVeBomrC84z5IRZ06uUnzCdhbzl7BI879uhAk8eHeTwNUvRJNAUDyekudZd1G4KcnddRzHsids2oLWS/gBMWsVrNT6CujygQQk/y70z0ND6oRpEq2oLxCxor0Os51w/u0TOr4F8bFt14fgmXSX65vWW92HV76kBrT/0oCvfxEMftNvtAFtYCM3qoQwbIkU0dVIAtNAywCdlk/jYet3S+NaAjTQ3g35KlohWIojwkAp2BPvinrQ/di4/5d0ikSAk6Ah97NrfmlXrrBH7kKP8SyRe77y40+6PC9g3fLfBGi3JHiLF2DOh9N+HLpSw8h2IvAVlemXv91PwU2o/JPT5Pa12c6fHh3sAET/41vMT9CTzmFIapGAOgSv4VNeuGc9CjmK1oog77BOAxPm8skegPMAclP9UxJfS4w4JYSMJ0454P6XEbR3KHgveGY9PiTGkRf+xg8JJ3LyMGL5ZFnkIwlhsEmfUwmYcWf8iDWXQFyb0e2p/CmRlM/Mi8KMWHs2tiiVIZoKxUe3aylVVlxt35A0hnlJ8JH+4Z9wJr3YlOZI/Hg3moVZGlIWnn24UO0iyA6REk6eKGdHwDyRUOyI8oq60rnYFdHbm7LjDUkySFTzjyMyF8CjF47tA6L3bJFknE2h6GmXhD+vPekCwSPMDrURKgZtGb4fVWwe8S6FFCRYPo3ajJuotsakF7CFMdD1VEYhIiRddx7Al81g9HS+eqDBUu5QtVJyKQYrzretbEepAbFBiQ6ddMWPMDeg3/Mdpi3uAEYFDzwa0F16UqV0H/iaD+GSbX4yWZHE08wBxMtfdYrK6b6K4LDP8E2v+hpGRgPbOFynkgnaJ/7p09iAgl6zkKBlaeH5RSa6ew6y0nAawA57gdd7STEIW+rgK62HP6vIfqUB/e0F0U8FbWlNRN9HGiLfYcSAjVZb4GDCy8JUJKhF6J6PHRjNqAR9ABvo84Ntgp++AVRwePWtCLY9i3dahmPqXiDpQslLtGaotFbdQMJv48TL9Swo+YK+IDNl8qbBElREuvWwEt8FRw/vMGEow2s9BuAkPQ9nPv9cza/QX84yGz0m5nXr9DJAs+UE/WRbs1H79rGMlg1Fpn7PTjDc1FaeC1iejR7Zk1QX6AlwxT1Bi1WeiLmVn4/rE/u5w50vitOjCi7pQRhBAUQnGKOZpShZklZ8beGHx69NvTaZdklxB6DG9GP99zYkIO0BqCMUTGD53SV5zNMODoYPdX+NMK/o45Tr98CB/vWwFbM3XwKLvH0EXXRa0G7LCRx/m1svjYAuHjdS1sF8HoryguCm92X8LxiDR4jvAxT68tAmJJerjiZCqIKuzq7Vi39+Js8XzhV0fMJwi9E6xcf/Q6pb5wl5mefAAckZ8PmlD0mpptJtVrYPLnY84oqfMXGmLWm/UKIZ5WX9uOQ9c9YECe0SgSOWmRCJG12h6bP0gMckVAja4+i3Jj5jU9R16fDEJ9YQytvJ8fCsZLkVefaJne2Qlg2H1SCjImAoxlMNH6xgTbeCEjAT5kbXYWiwoDpnMkFyzN5GDm07uMoq1bmVmDDD6ak524mgJcJk2dlBLQO/aKVZIn7etZALdXp9NpeK9c3qTa8NEzq1/7PkMwOUSO5JY76ngC8Vxb33yY7Kf1rM3odjtq55CwsnrdwxjEhTCJfU1D/e+BsvRezZ0YWKsm9sGOpEVRxYUE8o3Jw5gogL5MaTGBJh+S8hrtwBT3fo0/uARM9Iww83rvna2bLseAaJ/VPnntrfX3mdVY9B4KTNQzj9EWYDRonmRx4B3DDONNcMLSVDhgyJv1ywju6yYgNuj/hFMy5woSJX8rhDr+MAUMpppubiGIJl4LYJOPdhlF5t7yRgB6Z6W7Hmt1Sp3U5yG40IRctZAX6zQl9Z2n9WAYRHcnTv89MW/iRQGycUd6G3SIxLBQ1ZdVwhVyzxv6XoR8PTyegb6i3LXZqFbEe8Jc338Trf5cf0MJ1k2/ncgarswTYFQKHU5sbtfSl+CjzKbepVFbM7symKfuZvM1McP/5qG0aeksC2r6FPD+UuPi3zsLu3L7q5FHKOpDoxwJEId53KU3Kxcr8Tc7ppLnVf1v9pzRhhX/9046z734967JGeqK9q+GtGoNhwIwnOcRfhdJuB+C+0AhGVdCoV4B0QH86vfsIRQkQUqS9tWW9pJ6iG2e9O2qK3fRAhSxhvp5fFZsK3hrvf1kMDFRf8dT/dPdHvPYO41L6Gu7wZpOs6LfduwDT/VCUM3fBOyAKNwNc//pcHBYVi+Rn9ekiKzSbW39vO3ZB/4t5qHEz08ilHfW638iP3cy6mb/p8JYhIFYOO8E8h44f63f6FmrWvXxN+eETvGfNp59BklCJaifD/go6SxPaa5w/60/eiUfVeWWr6UeDGtC3Hw33P/W6IQJ8zcuC6Klu95a+53zw6Vkias1cOoH/kWDW0/wZiDB/LxTi0Cu76gCFkqeX6WQdHRp/tdiYHFG60781+cfIQwbMQR+xksfOA+Q4lqWg5G+OvogWrCf5nsOS2B7oFz9Gd/ujARXA/WeROteSkB6jf0gL2THznD+6ho0XfTZVxUJpDjQVDQrR3X58oRx+NVR9ziir79C/YrnO/xw7lffzz73bxjBfxUI9H0tBWVZUPlPQVVzoiz/xhhuOx32X01WfNGSh/cdjzJI6yuT9MQqxPyOKW6x8/ZSzjSlR6iZyo0k/7cGP1rX3xoYKXUi0Ah0gf5gLsWuhNO/9dAyvniIBWwDVVgIreCovPfTIoirdid8MqLuyO43Rd58bK+3UfztA0IgbgWWvn/FSobtMPf5HvWyKfFCMSQFI7IfOyN5IY02MngRrfXxF23SIM8Xr4S5KG4keTxnNnacflBHI9KGv7d9JPw5HhUUNaG6PtMOKgvwumMNRJj2MVuSTimYPej9HLE2UAEtWZ+OO/dtXRzZfNfVxqzMa3tyxjJP5rYPyIz64dh/ix5PgREck4DArJg98AxiGGifh/kSPAhEEXGbgNBqisa8zIP6RDarnx73QDh6JRjteQfm4VjiarZhMI0mFqZQlGK7iWXx62CGd8ewHjBbRgs+u7gvmHa4BdRxXyxLUVZefmxd2q9fmIAYojxlupnQKLz4mBOnFK/dv+cH0WxEZJ4v8kXYzJ/k52jQkeOAtuqEmyvG2w+Ifp8zjWIYNq4rkvndy/mv77QADgX+8SRgHacgSV5si1LBiIvUp/eMHh2vaBFupo2FANTQitLQDv8ZWzogzeFUfsivNphI9B784OKEnx0MCz2t1vkxdVm4jP6esQ/KFR9AaoZ5l5DdPRamEXdq1H9tuU7pOcqTcIB+CVAU8yguQ0oqi07UTsyYBXJpMEmiDrxvBJsMwvo72p2Nx+fxlID4qne4UQHiBmTSd2/LZC2SSWWaeWPVX/Mb1238JDYD2u6G7EY/zxbKZ7YyBSsT4XD+eb60kLWKJ45JB/zz880ee8y9PMlBAI+cCNf7FxXPVuHKgSHE6ezXb9JlDGM0ywFQJDfhoUgwxKtjHUZzLdnFRX8oay27UdM2twBFfuLcV+B2wOsSJcctUmAj3/9ZCChLory4VuNksp7+N/5YvDqXwuQ9yQ/xtnhsStnDeIZGvPOchxRx7YSj8o14xfDHTw/kEeqEQ62vPK/yVZIDc+sVxHKb7zyZbq1eItytL2Ixmq981uyVSD/eIBQMbF/mQeDx5g/qSdREUcmP2Mzj8D/Uyex1YE7pgQzy/gUqyNHHJHGAIcfoC7iPl0AG31ZP1HN+SSZb0CK1+cwg+qg4XOuLEK6Xu0Vk8nGc2l9MejF4ng3M2sF64TDt4teXxielVvDPFsc/esReq1UUppBK3vDUlDL84nW1NY8AGfzKsO4GoFjPh85m/uAWAdC29/ynhZPWuKYBsphAmc1T+K2VwBwelTyc9JW/THF/3yZtBCRUnL0/BL1FY62NwEymWrbl1xke1L3IPMlDn/7Yct+Oqo05PnhEPAyF+T2626gtBCfFfv6Q2J9H8z4ytNQz35UDSb1zYFdor/3nF7FB6UDM1HyP8+dvrndVaN7RALTR+LPPvuwlu6Ve0Zk86b0aE8awwtB3G44lA4BsfjleAGaKzoEZRQ01X1+bsPF6uAIqRS7w+OVwdZijP5tP/0azNv7faBUYbQQ24QR8FL8mZpfLC99u4deRCx4BLzTFbwVkXgOzyLfh32gp8l1nyr+HP7a0Dcn0oVL86yns454y1ssrGjCjffvfjOFXFyqyJMqXfSP6/a7UBnlgW+6yP+J1G9ZNH83R5laX/bMPtOgjQoBc72QUfnJtdy+MQFS32jwCW5isiY1A++Rw6iyiKcf8tVB1n3N5nHVocLDMv76wEhs/3zUFZR//9H1AeGONWkE6738SP786UhBf+9M4qPaeCtD4KgmopxU/jRukCR4t0kC42jfuXuFtfJzDuXAI3FRL/Z+1KNzhta9+0cP8axkZP+0qAfNPEnT52SoaGaDOrxeFwN89p4kH/heei5hUrPL5rkumRv63riUfdziW+jp7/8+LgLwDq4AlpM5uqv+P37Q34DdgFab65zdwT8X7RhBb1v7XNQ1s8Z6dzcf2VP4bEW7D9d8RTQUM99PT7SYw3/HEW+394BRJEes7mlP2v0fGjR4vEPJ16rx04g05Dq517fi5QUuQhSv/edefr8bP/60/+Ma7QE78j7wuaqpEQCVVQ7hy8c/vk3Y04ViKePb2T1rqL4rs9H+yXn9+b6RH8K9vhhKLzfsmWoKOX1nR1C3gyp0Xb9bfTEJ/yP7rHyXwj7+x0u9YKvIp/nk0yWqc9x1rKT/W37rTnxZNx/4nF/S26avF2Nod/P+xS/HVo4Ja0r94JsOvd8Haxf3h+gsa688yKvNvTPJ/YwZX861NgYS480yBy3k1S5giXK32Xt/Tx736d4WH667f9peIRzqe3Pat9VD/xb3QCVY72B3J9P6N7cN7j9NPyvb2tt/FPYGFBR0IFKjQcTHVqOiLZ864vuByAYp7kxsWiV5E5LZ7TNAdDjM4JdxpQt/0Whw5o8DKXPdq8c3dCbhHltH7lftckq6t1pWUDtzcZGLM/+1US/fHthWrV0SLntEKUC+KKxP+1vFc392uZQZ0HL+ooczec3dlSd9EvCPGzTYQKTkxdjuiboyFKL69aAvtt2xB0Pv1QDRkx2VL8iL2ppigjKwZJ/BRGq4/B9VSWWrk29Z1ljQM8T2lKhJjxWeoq1Yg0yfE4qADzgD4Gz3dijuliWigbsMbn0TamMSyPJbcMzAWuSxKX1Ij65Q6v5oHqLrih1w0fd56WyvGSsaToQzVzt+Xjo058IPX93y30iBtk87ta09FF2h0NNZxT8brFdvBuDG6gqFYjG9+T32+W+TuXT7vRoM+jTH8FpCygw73Ydv9oSqj9xneL4Z+Ca9aJ/a1FThl0dcU0DjAmg6sMaFkrHGfd1hxmbeS/KSujE0EYKW7apb3vfYvB7j3KuqArNoe0xuMpXb+It8FK21v7ep2eXetN/otLkxEnD4x+6DEoKck6/1rbb+aLYbL4ehzgfhVqYwESsvJ1p1IdtMwPN6cSmGXhJB8Sk45fnHpmJFsGSMnMDcrFlOVD8W81m7sWXdMcSv3lqUrQoVzseQaRTMNurxexFBLo0Xi3Du+6/iAIZWt6oBvTB5jjqqBvhddUCVJ5Sh6p12jsih5hBsEti/Te86h/Qu/quaCtNO2yCgcRI6PXQUfbLYI982+zGDHSWfjG7hJn1EU8nAUISMDclpk7NURQfNwW4+0LRlwz2dYQ+vM3XKLyuZ+s8vVwazsM6YpvtV+RkZZfBON5br85jl5yAkSlqYiLchjXYD06Xpx4ZY1+lu85J4aQZ12guF2dZoKeJ7wIiM+Dwd78tBTthVdDT+O2YEqwhmJ0seiU/O3l6t3iziCfryfF227LkyhKD6yd7BDDXdhFa7Cb5KMhHfujmgs8dJp0lKTPCG8DEPoy8fhphR9wDMVvthurUhaR5HVjtnbaaCa77QNi4w4P19iMr7ctz4RufyCaWgCMXvcD59+ZdjFnaVtgPWVO89Y9Lvm8C2xqVv0vL+Kyl9H3dnFZvbyzYgRK8tbjrF4JhgmSeaCAMeOOfHbSaDenqBZKtyb7VC4TQWLQbjJthoB2pOgjUNa/ANkj92Xja2K7mkZHhnKfQ9wmox2vUZT1+XoCoWkilcgpofU1oDTb8CrvpqIm/btGQ9nIUdRBUyFjp09u9FETMR01zkv74x0mfdkeDynP3cg1/DU1dsw2t0whVk5pU8+NYQO7os65vWGkb0LPgQY6j0PHGQDL6C9PEdT4Z0W4REjuRlocDV+WsEoHNP7kmh+1+fvT9+9XjGyiWKGUFhgKzBzniAn5D7xNFQhDOIN/9TizRe55lTR8JWkVbEQGkn058DVTVA/3owDeJWIrmaEdhKxePgx4a/rvij1xsDoVJtiQzZfpRetRirw1G4+tQ3Pp6Zwv2wsLLlg3qzJ8OCB0gHPnfy1KmELncyE9/3KXrLRyHUNeCQfT+c3Xk6V28I5GugLJjmavT3MLDMzzHLWjEaimViK/WHLA3NINaXRvzWxh8rfPeT+WlHBbtmtzOrk49xBeYfHatBVInFbbQnUcfJxmHXW3mSfpCybzhVhvmy4BxHJEe9g5N3aMWN7jSraxLVlAyKMAcej3pwozNiTRueEWBeMNGQ04oqOfjmzmXZzKgx+JNdhnbpCPH7jfj67NpiW664jaubzBIDoLs/ZV0aJFUZ0fuNIpWxpNcCzVxV++qPZoykt6JbgQL4k8QUhnkTGtwTu+MNU7LVV259IPL/5XS+ZSvCJbMzF5A4PFrL2PLb7If02jvmKuG5UH6OBI2WSpTW46YrMcUS1Km1ebd31C+65+HwkrNg8X3tJZ91xJ1aTzd+WbeVEVlMgswI7fnq07Z/NoFpq3kXAkM/wzlArsnn3rJMArAWjA7fPI+bJEyPDLt7A7rPpRpejovaQd4QsR1zWEblzOyJIcikMIuXWPkIriz+gqts/uK+p2jDwcZ0E8ITAUTXNy/3Y3OCJc8yRdVudcO4pGmaOC9peetw48k9CB13LfMXs+01fKD3xyHyjXxGDyzJyPWzVHkqL7n9YfDrU5lzMXTt6umig2ddSVt3ovqS5xQ8uwfpKDeNZpSBYqoj3STu8FvEbT3uDGjakX54oWXvTdEoL0wAPlNOfBz461b3Bc+4mb8gpDZqtVMvFIfORyrDX06mXbDBoD5v5A+WChrHzITMTVeRXC552kDLV768r0WxW4GxlhdusnfxqU9ApfVsiUeCgHuoB7p6otCLeYJtwX8yd8ihAlXr91l/gQSVGzA6Pt7t0qu1+k16HXZM+H/7mcjabVv2IKFnlJgwbKUtznn978g+S/qBHkKBoA+RTgHyRGctONY2NMGmfzrp3rHzCkugTxAHKwOM59vUhAmjOT0w7230lpUpRPpPF/81WHH4RC8+7SMNT1OqJy7zQuf6miw+UbOlpPEEH6XN5mUmpHJ8FnwHEpoZ+Lx1kup47o20RlLAWE2pMgexZvu2CLIk9w6ZLU3JB5ZIntfkIXum0tVSNrNXVi2NJmJSeRbcRzsp3Paj4pFGbbXb2ZPGYzZykOR5JCcfNqZEsbKm/QmBTmjqUnEDIezsq5/OjIIX0yzoGdBW/qhQSQ2bnFQYc0lx6eYw7p71f3aMBcmlyBkqU2b5y4SjqZe05dzMP0sCxT0JXHFcTebfnq7B5uZ5aFheFCEf2zBcr/F7WX2saw6PZcpUHFq+qwiGNLrBQy7ASy651E3p7bMLLJwLAHpzCrSH4XsXISIWq641MWn0itawCfC+/rVhfaj3J6KyYuNEjhIwlT80eDXM9pPF88AcfACUBOJVGKrwJGbQzogfhWnUHMqixQ+zfJOhXZpJpKnai7zuJVxJGkepm+rSzYJj7rK0sjBlaiQGnpxYCEG51cgfr3OjItesrqI8xn+gVkbMBIfGwVE/24Q1+V34klvNjGiErr7iBgDAswdYIKj7NhuyWqYilTQE6rbtvfFElRgqHXwEYFIX8e2YhZyNKIIPr1IK52dHHl5F8stTUCOUsE4vjLuEcdDtgGySiMreFyvLukzLJjJQqXHEBviaQiIE5DMiaXLuk+G20sHajj8SqHQFA5wI9iB3Q/QkWY5LeIGogBMlbLWTEGNyDSERDcqQKadUoC7m7tOiNXTxXUoGMtv7nba7FWc1qdi1Nq3fPmNCXZ+Fxt7J9iYwCs3DFE29rY208zjLsop7sLhppR0YRj8uajxkMjpnJAzotnsU5dR9KiJqeM5JtrkWSSinau/hA/vJIKVWqWwMqa8W0x3iIxRlAt9iIXoanmOQKqB2+SqVqDvbzxR7WSDkNiupged+9vH5z+kACNUBQEbcTL6XzqSvIHMYbh6dJ6XEypxHuADgJxwNph7xmYo7CUAhXwaQ3FmOxhieZ8SjGN/zNWTxh1w3Z4/DqkUv7r6CmL941a/NqbBBXhX3PjFL6UIP90IvHQkM3IcxROtlKRaK3fQ4C40HRthVDOUsAlCRucgwJSJSnc0uLrKrCh9naB/uFdSCWoALiT2PSSEYoIkpO/LZNJVL6yWjCs/thAT4P1lXIIhbiYL7vwf4oDcogAkSHJ1a5/rbNUmq13uZfbGdBQu50WDMBhbTJaH0WC5J9+lDgQMegIBMOjAH3n/AS3yRF26wBQXooVE7f+q6e6rSQgE9x/vCCx828fJ9TkT6AY/BGOqWNqNTSKwjCd+aUUqnNp52SmjihPCTQsSXKXo+7w4sgzxNpgPkqlaum7AvbS4rmfm2fja3x45tuVwXqyU6efsOs+rsBSAsHWaSyHpEE8FWawre3XVtcN3H1PZtKkrZ0jNC8OgRG4cSxO9BVBU6bJSCyOSkISJiOKCsB02Ruv+ugCgADbdScYKtcch/RXtRIBRi9ZbdNOaXoJAQGhRwDA2j4tDgQOjKbkbQ8oS48FAzAinwJruiOoyXSAj2mSv25fEDZUK0LRhumJB+2+q77HpJs6HARcObRgoTnfNtOR3tc0sRVYcOSZKgWr9Cs2sT9QUygUdkJLSFwjyVnWcKjyCN7ASZWty4w7mVYSAWozugHZByXQd7uVKvYypzk0e2AnrC9c1W1k1JqkN62kzsNcODgacdiOyWAsuvEG39/pVp5xVzEYEyzOc1dxCTO5jR4xcnWQmvXF4hrxVSfPqxp4SwltLYctNk9y0oAFbNtpzn1Bv0hP+LdwG5GQ8ad7WuNxUXXF/AU0peft23VgJrhjSLL45EhrkIc+qP5SugbcGvVPkIFOba0tlwTxqlCvZe3y1nc2pym3Af3C/oMfQs7mGpKVeEAEEAlHaiAj5L9oEG0w6yZywgJkK3ri7MAnmkrU1aC0EJ65rnQF2C/gCMY0Tj/xUzwDgC/BOu0xKff8cb3HiOxdVMZmyAbZJ708AcMJ++i63EDl/Cxc+XmNW3qmZXw6IxOJfFdA6fMmsJ2piW7S2VfgAAS3Rt2QwbgIbTKFfdj+wCPH3IHrM+sxbEJl9WG2gn4Z9YiQDsv7HvWB2/zxauscElvq7cTI//GqMsrB0BkCarVHZOhVLviLjeK3EIXWBISOMWZtjKZ4OwGEADzrBcXTTNfgNToALsbRpUrKIk1tGqxDWNmo8fdCBAv4uAiYowH6ynNvQU8LX2LwhssQ+r2yX4uEEZ4TzBcmR2J2sfGuQopeKdoMVgcvR7Y5RchvYfzC6IQZNWcDWuBjvIiJhOpYEIlyNbo/D7IgQ7vDkk0P1uMe7bLshXSDi35JO5x3IRuSbgRO95VqXIMe9sr7diejl9IWFHfH/Bm6TM1CohFbBM8oEcZc4SZW7Dj3q4Xu/6kVJ/i7lOOh8H+sQKrGLL6EcUwjcLQxltAZeCR449Awrpj+VHJe75sBCxFGPlCdc/w4PHjc6GYCnj98GF0jSvi4paJHiWKuDQcMx9BQdD0Ca+oMlrCYEtM+G2BlyZIPw3rYOOXW//Gr37/dfgAvZnIdHiRqdanzoanM4E235lGIdBqEwaDb8bXEN5A1Qg3zT4DphwDZ00vA2U6yHnofbP4dl0GO+E4iBp6NSHIHye+/1Z2u8OqHFKBPry6J8sPDQEn+2z2SlgIP7r7ay8csWXtngWVyZCJbMJYSYx8ImHE8n0id7XeT86TTTOfkPp7w/INL9ry9+1L4VKouph+2AnFe06TmduUUf3JeGRsVs5zMMs1vr26yM9dKIYHOAwNtwjWpR5A9XaPPFkrdZuWJjjcffG79nbRGXQR/c8+erwTcZjHxAl3taX0BFCtfZqsqQ7i4/p9/71huzESomw5S5PYFpi3UFKawvQGd7PvOjTi/xTzHFIYZrMeCKq/aiPcep74LnEHUVpS6ZDNOOib9I2VCt6/NLjvAbP4tow6QWioZ/e4hGR5rK7ERt50+r67aZYcft1ZEQbw9AwCn7NNoRnF6bFv0W6/xeFcXgAAcNWRJzdSWgpZHjzR21N7I/387uNfjbmL2Oo2wnPomsd5H51+G+GkGMXRC6LSATW4OObTj9WRWMaqTeNbI5jn5schcoxwy/luRQeJIHzumQfWtsh7QG4qkbla0D7TFCACdDxARETTHxxNL9pW1+JG0bw+rs66WV5CQaPUHElvNFPZBEvElrhrYwszwIttutAdWCVNe0tmwwlGysaoZiO/UXKZIh6oHN+acUeT4EOS89i0GcMms2qD+PGG8aZDbTa2Ivcmtq+UAmrGESOyOAzG5kmBrAF7VjH+7akKPJQykOY0pBUx2Sx4KMC9CkVXdLLKXEflkezdJqjK8oQr7hJ1I6KunIqfZ2MfeG1DaXjc76HqnvaSwOzBt4WfdecH0Foz3FTFSxAsP7N5+kX5DKI8g5SkN/NGmgTDatsWYwekl4mpFtSTzNZYmaLOigU1A6W84JHIxbWBTQguurxMa/Hl4ns9ZKxqhozSdXrW+tpitXgmrzSf3xMzQ3ufRLYM0daQGro7IS9R91stx1FmTEedL5k5ZD45Es36vYG2T1+fb2cJOUlPOjJWydyic1ZPpSvCJE22JKPnsQJH++DZ/R5tvhxZCDciWCS2oo0LIL4rSqYjW1gyQPJTkZUx3TeHJBBvwUu/u7OfgnotKdGr4loRu1xyPFkzK9NhfC+MMT37fFH+b/sw+bbXFgzJBMhjQrYjb+oiLK/GqD8Jdqra2g7ze1ZZiqyBD9FzrmY90BjgwAWYwi6EmVJe5+f5SlgRbzCdaGrvCnfNb4rbGikj0PK1+rRl1dqIIA7XXmhpoJOTyd6Dy/Rpkzl0P6gP3lBYIEzMvhmyMgxTpEcRwivWeQWKdjqlioTO3iZ+rqXVdA38oQ7bxDS0//4A2kRRKKQO80LahRRZw1loNX7SgoZWM9N0dyEekbutxccbIELO1wRewtXUatOZIB7UJekd2dAmUICyUT9TOBbDvesZJkKjbuGpNBpoqU9dk/GBlo/vTeVoUVhVEZgSSRP9SmWtBnX78W23tenzazsC+zC0djadCjEIiRCk2Fal6Nh9anEcUJkUTXbsvWdL/PPeDMnCSpVCx5xyP6uGWViKsVo0a2p2tRxwN+0qZoxjNOyK6uOmz7jR7tckRE8H4FUf7rdOfcnEKIO8D/j4+fReOvmZVAOwrTULyWM1ByKrCPRDU/7qDM0q7IiOgARCSDQ5YDx/PT0VkFJMMUAt03Z45g+EXz0zgXxGeGYYo1Gj3NzFcFvsSdWsnasgmrvvDG2wZ/5GgnoGUZcTW2n9caYETkVZPdO+rrbojfZEjTxvcHR7bUL8yFyJ8Itg9VOwWljepHmqmiDDUSORjk6VxhcPMLIz4Z169kQWZhFJSmLPa6Cpfry7z8EHYUokKwCE5/qTI8SJvTaJvo+N9flqxOP9ok13VeAu+D0B6JQCXFvk8qvzPMlChQPcTGpuFH1aVO80CWI8GaonvfPuVQyJNjB6fXh5KkT2TKnTqWH0kWB1bHAOiFP2tawHAm/dBuria+/JcL85IQQs6Amo8jlTtSTEq+VRFqrGKrxj/WaaxXCmYST9N1IpbgKt+aXEBVIOYnldSksM8X0nPX3eOgt3Fxmey97jsQOw2YeAPHyRufJ1Lfzw9Gs595LXHZCH1SFBmHU0dsK3i5GIxhfkpVj9y7xZa5ihDYtnI+o9EAfP8S6SIdGS3nbe4OHIvsSOQhIh0CqFzD+tuji+L0rQn13RPfzk0R7IQU05vzAb0wza1jk8MmOdbs4E4EHRUlWMO2TVJ2A1vMdyS5YZnn5WTxtpp/tSjn509f531Yl6VYJbZPUWRSsg9rQp2IyBJplfyy/+rrgeTP4urB1IZYgmvTqxSuGKZl13yUZvht60uJLCrzBQ1CJZmSKYg5HpI8BnvSaiA+Z1MWC4wUZFBZ5wmKoUxAB3/YJ4my3uznK6JBPIr8a7Q3sKLA9Ud48RYKniztb9xabhfCvyKQrsc5EDizHdTXabZEb9c53xnyeZUVUK3BJUZSxoRDQz3TugCaZeQsdQWrMY03sjdCzvzlhLHD+pusAGUh1Sh657HLL8vY1luNiJL+y9xu5DDLzjquufd4hXx8C7RvqJAZtb93tbfluPKGwtoLfFE1/Exvy0yhxoBZkpBamFcUQjPL/Xj1TNebh5iuIFQ9Wzd25eIBIfBsCJsuiehZZjUpnwzrcAwLjmKYsvR8DDxUeySYaXjJgHEAu3v2uuGW32XDF+x0IbxiQxn15GPihvlq45HT37yhwu0Si76mV3WJIkvHUK4k6q/kDQy7pledHRY/hsIsmdGr9vPbR7gPpBgWdVfAXvhVj7YSu6TDeySeRWeXm5ZRDu/SxxF0Ry0lO8CGo8RwFj+xCDMz9+TrMXpARZewhACngAZMsnKnuKTsC9Cz95fjMSagk+qDOXpWadRN4SMq4D5F3zKiNlFkFP8pqGG2Roq1cpCbJZFxFb+/uNGbehoTnvae8lhd4Gj30R1eq+oYVQEL2KOdlmMl+MdSALugiQ+JzMSFir3NO/ETsn5NI3Dr+Tg9e7Hdy3yoVJp1pvEGUK48AaT9XD7ynbyq/++wC5esIKQVgQI4Ynipz4lmDf7cPk2cnR/qY1B6dzyQxi44g2mD+dINP0d/95v0Okpgo5xbCxyC2qsuA9tOdNOIFUo9iBdX5R1vGBVD2w/oSpHFLjn0vNc7HNJqo0qDyIPUSDDEw9rBlwtOst+oIOKltRTfY6oci0w8Iof99bhirFqVHGLDoK0o2AX6U2UEx10px9XpJSl1Zs63mQAxp9esAuIb350wCsMiDavuNHMbxrEdARgFd2rPCpsOoNTk0AdsnMOebfmBpWTSwg6i+Ub11X5tpbLRJvuOUXVAya9JhzZAv289O3m4YStVi0V22v81IUrrTfjEhvyVs99ihQdHdWp2j/5nciqiaZ40kHVbW+TdPPWAfcp0O3j5zOgHWPqxsX8Kh5DpgvAp9P0T9FUMF4wM3kV5jY2TO/C1vrGaurDsRLCAqrBowAIUSf0VSkCFVt7oh3GxhFbqdCSWU+eis8VcOXDF6oPXZXQSo6vBfFRKiLiAK1yWJuxtHzVPIbdfSbGDZJj9rnutzO7xrTofoA/0hArScln0t8YVoMyJJy0RZCvj8wu8qHMDU1FevACe3J4aBWaIpeW5woVi03DtFWY5PFfQLom9yCmEcorIrm/sZ4SoRBeytImQWPpMI6qRz4RQrI6UBaLksorCyPaPnxNkHT4z5hQ1vl2xeOIGNnTmND60isHsgFxnXne8X333HfuSh8x918fCrUkyL5VFqG7/Ftaog4mnqyjs+dqn/ZZ4zvxRRwIol6kpYTXelxJdbI5EQmakFcYPZMqBOYScsqlF25gPf6Yy8EhT0HtAk+JEk51j6QqTCEWC1gUnXKV6Aq5BH9MuTaGp8wRq2n0UrDtw+FN5a0EDZIqu2ZOBtuhGgC1vCqf7qpqukpNLFGhGlhsyJF3AXYHhZZ/gKUiS2BTCNzN6X1lxk4qOgrmgKCTNWco2wJrcA8OUbh9QdYNl+tHogafuGKDrkSJG8HyPdlJgiF9cmo8O1IqWcbC0sq/Jw2+I0A0TH66VHvv+jgAZJXzKK8m5bHL0bpTHJsUp7XeRzLgwj9briV9PMXy/evDeoPRJzwXXDm92QfjVN2bH3kQ49rW81pABFdAIieMVC3gHoYcxK7Pdb6YVBpBmi+zgFic0hQpYBhjj0RCCTx9f07sp+O6LeSgmCOpMHdlE4BVc+qvVFrP314VDTy5nTPCKJjAsLqYR0IN4g0KQbkQ9jbQNXYo50PrUQ9hZyVSC2W/J2DqIlU6NGjc8Qc8fTbxrKq2F9JzlZ99z12Q72KqA7yzzVZ4Vf/ewCcGei/FMCYJyyQZ7E+XVLypG1Aon4VPGIDPl3cjmj67QsonB6HiWOWmKoBqgetlHAK0M70+zYBP4jBDTvhBQIJ44UPyEoPkJVCZLCFedkX1s/LlBtHD/FdJGDhJTPIasOJdMIZhZwJrTpBaAyTbVauj7GgsxgQYjrIysi+6fe2nbWmaXtYtaTsRQYYfpw60yXLp2D9uwEGB259aWjA4FnBtGs1SgbTqHCTKzOlGDmAaii5mCLqfr4Ct+oXVk/3Na8i1K2xkkwWFNZQAD+4NA4BC//qEepGkmu/HzCPdYhMrjyQlp+7P7CPOQlxpLdo/7XT5M5w+nu66sYtb20AUAckzpoc7XinAVNiwMjvqWSERTODKeI+x0vXkQGMe2zexB6ZEiuEvrIfOhp/2egnxeS8QdvvLbzxa091vIZwE7yRNPoPLrvF52bMWugOL80P/WJqvv6hkgnQcnmlSQd43ao9zq/HrtyOAi8sAVqjh6Q5dydRIn7U8htR1AtPux4Nj/lemh4muR9H35x0FtBvVaQq3fA2DREoeDnQq1VibHKpl7FW4OHGdedlKu4Ai70kNNGhfNLxARC5uzaJTm14WDUAKJiWCWjFiPbkDoAGsp1F/xwooCLES8xw8FeblDBvXs7gK9FI6CO7pADJvzpJ/3QSQp1gJu10T3loFknGgxBE9vDek4SCWJz3MwJ9KjfO2jCDQcLnfXn5LHeqnjuN4/DZ+IUkjLVpKcA5f9GDI7fhfKTzDvwJnr3gUn5OuXkLd/S4DB3wOKDD+2rQL59E4KhDDTTSkdQ1UyHBD9oErN5H1fK1+k7NCPQnZ6qg1Y1gsiQgtRjowK0HpaE9pM0r/et7VPJrmys4KILdQUxAxDB+dYidX08YKtqwZtIuz3Z8kaP01P7qugUAFMYuAW8GLY+KhReSCCJrbuTxttcAH3IyG+t2Njy+/fzi5oljYJFMquMnC88QiGNtzbhs0kDX+b7ruzCWpkbo/dddf3x3ejLV7IC/GObxLlbuGIndHKO3jTleKov7S10oCKVt/PziHL3+vFFwv5hIZM+Uag6VjH2Qa9RtvcYB4NsNgCI/evsl+oauuNUGUVdz1uSLt62LBqXTrogC/So9Lw2uVfhhdJH7EmibG7+2X/QxjIP3TlA7i0SXffFfN374L20Q/w+ONorGVEmXwb1Fa8KJAmvE/TfaZtADaWmoJh5wnnfMC0/ywOafTrwMtB2Rrz4atE1g25RdtETa0aG49PlzsRJJ4AZnkENuT22JmzSl195ZeapAYsZv30uSyMMC4EP8clcLcxdjTB1qIDpAqyeFsq/8JZPor32d/uWuOyCbOEyJCHAmKBFPj1SoHly2ukA1nUAMUOfAOX/ZtM38cKvUBt7N5LahurxMesa4CSoFygRsboe7FMQFvHuVRBREGeRam2G5AFdMdKvF728jIE1Y99rLr73z116+3XjNyKuqtpDyVnd0hGdOVYOc+4YMYvUjUDNqI4p8W/O3UwCtgy78siQVtg4qnXd7tMRnUBxANOwduZoA4mem2JQann+GARHIIrB4wNBF3GF1D7SvCDpsf9HvgujHk8pxwg88z8wWX64FHNZq7wmQSH0Aek9fL2IOfz5whwyZj81ATSKYSp9ZZ74HwAJGHO7gvPgwWqFtswE3Rb6F+8OqnuA7OpWPZT4ulnI844MBv8niWN0JNVA8l7pX2XcLVHlfkPXwo4k2rWFTqNB2jw0WJ1a/sU7OfpQvU37BzUxYcV0H4MkAR9ePHxF8iDOA5/XUMm2VRd1taKRGbQCXHwAkpr2JzuVzmUvGuXFtZ2qg6JJXIAW6rQiIoY3jS1BLuEO3Fm5rzG7oD8zNj57y+/4E3Au/DNVgVQqkuNEzrzVtYZnuDgUFwLm3de0InJ75ll1lp3tUWDRnk4Ja7oMA5YFargUlCzATcqrIfttb810IKafc/VwQQwIWn3Mj6/BybQJvlv9OO57EQcDveN5OLL3lSdHQW8jw4bv+q25X+xtBWm2ha8nQKt+0vr0WcwcvvAyOSiotWOGCjV1GBErjavcuqH+6fom+mJmhJGTJDVRakhV4zmPeGFohvFWd6XcNK8vpV8PBM6IiajgAvRNykmWxLyFfxV+xkxEH3uQPlygj8Mjv09sTqEkW4MGDgovwAPNOotrag6eZamFRTELpV+zufvc/gYphhgP22UpmWa7SOfgIy/WBT/nkWVIy4Z1TGojEZkIvnLRPnn2kGIPsAz3knlMBwt5fq2sbZZAo7dO6Gek4RJNKDuK1nJgE93aAV/HVJAo8aQPaRyGY+Azxlnit0N2frlaWsz55duUH54mJrgCI5CpJNiqYUTN+4neZ3jcHnrkg8JdkjOGj6fOxQLh29ZUpwoSaKCrgikVmzKzZkCEHiNWbxNx8cuFXCYv3EZ+yWJLhdI9EVUpMoubjUKtUDn2u7WgddT4NEq+ScFeFVx/NO1BQN7k6GJtQejGMh29rowWK7eEZbxpkwJxyrvqFnOkcINP+GyCw1icn8AUwNu+B1nY0tLxRfHgMHj72DS2aBUPJjXdu6VskFi0MQXOpA7HnPrO6Yi5XT6qXlrZw9GfAq+ZHFJ3vPpOpFsVf+/JAyxEwB8Otb+wk6sGA0gwgzIikHNjhqTpRyKoWWVGt4MS+SN7wav24GMrpmuEJpamQk8I2OCfueUon1L3z3O9K7U0UuMGmJf28/G/t0mgJC2RBAMCo3wuDKrFtW01FditowDVJnNybRzA89xk425x5Dhjf6bIr7SnFf0C+il2OnyOUsg9WpYBSmA3fQJuC97y1b0B4WI89kC21UjXMqMyz4t+uKG7wgtbPtvDdDVKRdgRFYxATD9J/LKDOXUm4J2iZR1QqqvZ5BwbcE4T3Kenzivlb9lqb39X1QC9Kii88EMcVTx4cZ0TPpBM9UQFia/77M5wojPmn3W5HwIufcGNahUhHC+60nixsnwGIEK5arT+5D3+xi0IX87T4/rx1pCkFn6NdA6WP4K7342QBXxgUKg0zIHc/++992OXkOA9kmKjgRHcl+PBosmIRLDDi50+TPo7vZRJc6T7juvemgyVT7401qBHC4t75tCnO8GAC9ToON+gTY2GkUMVcwpvdzokVqO4ss2alyodaQNbz1sKm7sZANIfR5wiosi2unUIJwU7ZYD3v5fPXwA6+2MykjHvKk6GEhRyQzbtYbzJIjPlpCh575/JuO0MlxalQzDqZkm/qnXVJYBRMojmwlJxytOS+3i/1351yW6Df59jKz5vArqgKWV33NFhA0gOzyhLTc65soOyLcQEKrdn7BBUUryAfxz9oISUZB9bqKuIM2KBakVFRU8YIIb6PbbsEoG7jzagWyavg2rc72c5nJs9BdBNDSOB2w8PZATt4pi+dRHlVk0EsqFcKpUAUZLj8uh0i62oBbt0S7LAp1jgOeMYSb+6ndlY/ZEBG0tBbpdWOvcjP8+rpFKLJnG65zB1vYwjd7UEuyQEWss4SA60uw/M3UDdS3qB2mRUr4rv3mnt1EQUeXI4mqLuOjaLpfU+X7lP4+GLRG/AAmbDrDxFiRvscb8LTQOAJeZg2FLw18ORxtZxagWgvtH1ALS+aZMk1NdjqixHNmQoCWOZfooGdDjW3w4tFE+CXJp2cIGMa9HYyN+CV7PaEl8yQsx1UpLT9TN3qwRGN4PQM//IQ3X/YWXpC2xzCCaMHWIcxjFmum8f3V9M0t5ohIlBsHKbubasmdkrfdGd4h+a7A77d+sS63QPKHMDKIg2er5n1EoWk0X4qGvW0eeAp9MM2PfsKEpAXr9l8N3BouC5dTw651Wbbo993o3vACmzy12GpG2lrxx2NHtu5eiRJBICsFQ7A/a4RW+msJA55oedFVLq+7XmyR6qlEqO1jyanmq/g2LX2e16M+fdfv4aA/S5ZuZ0kqxnYbql9fzRneln1I/gMyhq9u/fLF8/iktQaggFInsDX1A8sEnoMfgH4Lb6D8/kJrletZyzLbhhWl2McY1lT3AxJJSy/zm6CHSJn1sMbirIBwPBLM5FQxRzurMrgGvZweRjkM1Bf93V0g7M8pHxG30Yj2ONKVYFnMpkksTtEV+4UP/6lJjFtwIvfl+Xp+p3O/W78yomfgH9FKhJO5cC+GJOkOGe92dR5C1AqNt9sMEHCScueA3gdep70D0fMgfQt2S/eq2LGiPiB+8OYhxTX/ZmIADfK38WNaWpHeMPBQ3s8dE+GkHOKiNZGsT27kUePMqb7xwKVGCi2Eh1e+1PmjazpKwLRRWmJH5Qgsl41+kYFm3xZWBXHJLyeaUY8tY06/mNfsf6BV2aOJtAXJOnuzg796YRf/QhtEMjIJu/+rZFw9wjfxtiY+NbcP5DyU8LfXLKz79rPAvAx99LdEbNplUk4/xm/LFZg4zg1uk84tXUPAG2mHaCTQCTP8w51AqO9tuQKGe33i/V9v3Tj8QV/BdT9ljjTQPESIUXHhEvwd3ZdDvthxiwmEmpZ0Wdr5pPJ2SGtcrWzH5li5YLg0+mxgEpPLU/vdkxkDzvqI7GsTUlH6SjCRGBLyEW6spPBi9eVLaUM3G8Iw7Wzzantd3jHL7oZH2UgpoY4b+Q/xlRfpA9wp7Bwv2rFTGM/8OJOz6hpwJTwNtgikDmxwd38mKAQP7CBJZ6gyuFqvVxkwbm305RvRSgXmzu6IqzEA+D0kFh2mAE3kK8knNeGb0202piBCZvYC3FUHDuzEoftthQ+5qWOkiOxDLJK84J92xs2EsfYjVtOqUOHhAGAL4XFtcZxp6xcdFa8b9OYip/KYRkdWfWG6i4W0vFnsOqwOBw92coVlYN7mgal1EftDZ5TDvPL4ao3sylj0sLQGBHHIGARLW10l013LyZAfdFlIdXyULUHyLFK/OhVcxGbqFzhNYismFJjpfwyoIf7faymzibX/J7WnwUwIlC/VY9hZEqaY4lpS9cCl+DVHQu9vYp3zqa81ujepxxwf2K8+4xhBupSGCo+fnqaqo4ZdKb0Xtj/6eo6FlxFevUrgclLorHJJntHxiYak+ynvyV8Zs7cf9GL7gZKpVL4VKWSHOaSbg7xqDjpG0ylgOwFbhi+4r6x6HP6OCu3mhnzywxKSEVhEfpRWBoZMOEetnShrfj0rrh7UdtB2LBKmpyR8+ZHuUYMe5huwAw684RTRubB/2zI9EWrdFbaxD+2Fr5esG2w+eLh7oWZXNDOKeMmO16am/txdNJhHndqAAnrH0hKmFjZTuRPhyCGNdzYRCHUcTtPmIh5pmFXPLAcdnS423PhEfajKXUgHmcXq9PLo1CjG5xQYgn+xQPb5h6LHwJlI4rImonfpNiNoHyjcj3tAL9B5vLXIassuJ9zz8oRqWmbzeK7kmQVPBB0jyN9j4lTbeo7eDzH6+XnF7Hbdb1eivuUFuNOcq4oISh75By8MvFcHkLN44SA92Ta5NPgleHCQjpjLtEMXBzhqNM+rrmFr3bYrEO3PKQbWQQfj5EjCCc0BFbeAPXmfBc7JxgfKAKlro2GF842hcGZKxjLoWPuZjbAHrjG/AglApLAz8kHKG/sqATPx0jxIWVOukVZeJPdpiXnJ5dFuL+1JaVwHw5ZMpjxO0Rs+15UYhYF49bcyPX5fHvrWyizIvK+ZVs/PsjB36UiG1zIqLZbNsZdgELVSkg40l1ait8zyOT9+RRhrNu2PomLV0I69IuQ3LjCk22d5xuaVTQGWBFDvm5yPr9LiGmHlnZW5m3Wr0d7OSx7GXbgczRs22XIwObCurKvKrXbJ1/E3gSj+b8Roz6RIV9aolJlpmC85cziQtJ3CE5PkW/p+g2J2JmiVr24POxbFR6ZOw9CBgsZr0w8Wk6yxER4foCXwybEczQHehXr0KZulFU2OpwI+w34LbbqwnWR8HE4ZMKUb9fH5REFm3slXS+aK1WilnOuQ1HCPd8lWMX58fviInoLSwNSvDIs0Z3XBSG3L9hYa8ku8n6+6Q/6emYgu0Jho1UqEth6cvFOfSON1d957F4e2MtXUDSzEdtKQ67bt4h1hrJP6vIvejsoqiyKTKfo/T3ynkx/vILJdO9MLEIUIc111QFdDr0KuyUhkPGB84n98W4vOUC+t1GaBxIm6mMN8qNqUCuvJJyWk5FHXL+E2ywVy3a8o+n+I0Ux3uMy6/UeiTZIo6SqknynC1oC5YgL0M8M6Sdkg29JtNngdQsU3k5Wq+fCsaduA6I2SGZrbvJ4MfW4DPPHSV6JjqAEDGbs87zvX6UTwo6Q1X18W0XRQqbnOIhTh57jSHsl5XMthF1wwXb5Jr02ySCvAYMPNnVoirHjNvbdnluAZnmmlU9M72hMSuiiLewD63MrINtZuJWUZOT+wREbOCLTTFV58l3pI97p69YsJpu7cb5VN9iuv9b50TLd4XAF5BXgnkn9CCF7+HV6Mszu2FTwG5+AAOgh3MUHhiICor4g1CgZ78opWBfiRu0+Wy490fG9SJBsXjHsBiuh22/+tnDbhUsgbog7xSP2ef5Jif2TEuNNKixvrN+XefpkaJW+x/GTYJQ5moFyRGxwVyO0mYIzLuy1yg0vmRjImx0LosG/UD/JR/H9XL8POfHOi/2ZRZgHawB1V2u0PLqm7snyo2475OT6jOw91Jr8GawnbhwfRWCXV7M37PstaaRj9S+f+hWtVH4HHYzqmzou3vgo8zXSz8QvKlZuFBLjy/4hE8iyM3oPqjcpZ7I8f0R/xiaI+5e4RCJ/bf99NkCIv29qdSqU8fEENpda0sUQPF6F31Ofj2oS2+W5Lzi235Z+7VziRxsXH6t1e07TolGWz0w0lSx0vSKrcFEfyXN4XDS5zDnyPrp9VOrST3vZp5P/3nvBfF6g4blgBfTMUB8TbEB0xYibjHSNQqv5vT4m8IOl5S1AGaX1NLKHrr626dB+cEVNvSAE13PKPwvEfcuQosfODQ16k07918KKfGb3ZkxfKj6OFOxTlEVz2JD1g5801sh1xslzzzA6jfI5Tu2pmkE457Fa2fW4yzUWTHCcgOupkXMJctqE/0YG6eQHlHjevjcVlH4WEhpnL5LOCPk7P8toxIga52PEPvrZ3oRWGNg/8+NDHjfCU9NWC+n+S24s4NV8eh2+JapBBHNXT9oiN07RyLza54+uWj9sx9JES4oXvj4vM4ZMgs8hDFeaaHmi5kzKHocEMeu4XSBO8Tx4GoZnr36exvtP32IfeRb5mQghBfwzZT3xOZ/53AxTDdFoLPdntB8XlMuCQsGJYW+kXJxQIBkvhEecuj/aK8nwtQe9F6c2M3wdSloIUFdD0cFuOZaM1k9EknUHyXL1SUmDkGSy8Av3dpJ0bdHHvD96Kb0z0MvXPTl5EcnPv6BHMFRiZKZo/UrgY8XwD13vZDMKksMBFmAIgKzr3E6dylaT60HCD6HUyvWd7KaYFVxop8HrE++4RxDv8Uf7DJbnrp710/QFleUKzV5fUHPi3Np5/l1B5O+NFNPbfMlPyiriT0mIMKPZPYjjP++cTRa5x6jnQjzniYEI4unp8j19vVWGzBITZP2yXEa7UptQXhs92oa4NXJwluY/lpLaaj0/8b8IT3/eAHvjyk1Ak8ZYq2awDX8PYkP1LxUh8y/ofthFKHjOq4hoUsz6flpOGVUVcFZp1yY4b22OdOWuJYzEsB8OJCyYFlGe8VDmBpa2HNixXvWH5B05jcq049xE36XRU7M1epaEr1DCUpusC9A+iktCk7d7D9cwBMu1VdhTVQJG+y6cbKZhQscYXp7Ij3Ho8lhgebxUNuNmqxdGbN4k+soUU619OUZOPjP9kO8Ytr9e/fqR/9iWHNk92mHeQ8TG/QTL6jyuCjEX07Zha6UHp9PL7RbYheOqzQcH3SH/5qp58u2fF7YkXQjJ28tjz78eHmVaTvS1xl5DmVpfxLi56ohEW2MBOxTkxSXyKt2/Cq8Sjf4J3N3GWJv67kNbGNckPqH5UMT7h0+eH+NNxCrHuNWZlumYTtjWX2bYJkqIcC1GBRFJvLZ86Mzdhyv1tZBtXKsc9RLKuz29BWpY/Yd9H8AAcLfMexUBZ0sBS5Lhcty4SoneI+gu+Mev6KuQY/hHzVN9f9YX+tgTuJ1HXAI0u+VCNKU3K6NbituyH987Eeg8IzP9kXLTfyZ+8ELib4nrwi5CZO7U/UukZvqVPkiXIPLPLm5rMYAr1CzbysJYr5wOzCfu18USlSmspeuzz8tykZafl2Aht3Ejps7Yvv6t54TmzpTv3UwBCgwsI4dzIc1mro3MTEwqR9EUBBkIqsKRg/VWHZVrV9tQhKP6JLz1QPh1gUzaqMiLwb8nKY0sA3MaDqUf7dPvrbm0LQU4WmeQxdo8rvnqs33NEIUZvny6Vd8ythMIX5DTHwt1bvL49TZpHfwxbJM94Mq8EC5abgdl73IUHy4Zg+EE8nMIAf8sCOyjS9dDkxUm2QoV7qv6o2YTFAYCmHC3ocN2Co1ETX/sieiDzJtMQWYqo4JjDe5ni7iua93OxSyM89Qgw+Jzq7EeqDEhK9B8sWRKkbedCsBnGCh7j9t6NfarUuFE33v9woC9mJnj7IT2AzXUJqnoETxYBcS1CQi6wHuwJ+ZVS1lstXTuZ7NEaKXA9Gm47Z26DZN7zWBf3GKkgrbOFbFVoDD3+7knhkw6Ksd7RMmLbTa+MAoCE7vlFgrsWu/xiBvLJjEZFSpe03g/sHSjMjmjqNh/9b+8IwnztPw4DjbtA0clYN84EN5wLavoKCwGG0kk3G5akMWExgQCS88qGY0S7La8lbyx6EL96ocVghQcywA9v+vFs8Zy4pQh77wyez+LZcGdtfC05ycH4YYy+QcF1ueQeUvFabGFF0UtHH2QJLoc8UnO0vd06qg4IgTk8cBGE1/vX30YDn2wuVPDI2dYS0wlNsuRxvVlINeoTUjGCFWl4uRPn1nlmfhFFSZ/a5fX1s9pf9uaUsTNXAx7skzjg1OKRSk1w1K0RV04km36lkdwK2leJL3lfHmiv36887Ng3LOOaLkJqnqk6kPkCtoNrFKQnz8r6fx5Pvj693156TQkujKXWTsyUUfQIbPTJbhdRumvO/ElrFzEV/PwZQr1rTWfeUPydpSKDzuAu7dUFoYNqRbGtx/3+AZhc/5GYrJzVke8h+nDm/UJmVrFVblES6TlbnpM520L3c7xcAOxca/WpwzOubrCrbi3SH5gl2E/7Ll3OnoWmL6kWgntt0cd91Mu0nSLqRPDF+L+QWJN6zj5/RcLyTMRX9lXLD/XOsTr5oEQdtqu1yGzbY1O74SU93dvIaS6OfwuZPIUKWQ31S8msDG9F999me79fchzkGyBLyq1DqNv+2xGomy3HXnFwkknsEn29VR+jkuvd9KhqlGTftIdXBOszIlvdYsNq8isvC0GIwylDlY8N6sbtYDTxUaSV4KEamYNNqpPpltIS8b6V0Fh961Fc/O+JHbMrdTWsEQaqL3Nc6G/bt+KqHklCrxxi75byQ23NHpIAz72rdcg67nuv/ktt/JNXHK8eqeWsUVQN4jTTA4L2qdaSJSZMntKxUFOx3HB6DNBZcCLzCGQxUi2p24eMhidpfqIXkALLcnF8bHIRo6VxylYKNJIRDXqU2L0xj56RgdyPy0/Twl7Ll3ErtZsPJ96cC9DRuQGO+6Xps6OKvFi+Nys3iLsE0jN+8PPGYl06fXpr+qWHGmoJLubdUzVL3E+wn9+rX0Ivge3ORXb1KE4aEcYC4m5vU/Bi2qziPgMCWTeiwTZrFrzNqPJUvCy5AJR4y/8rnxu1/lbFab9sFstevVJYMZpOmrqa3mx+Wc6tVxvhZ+TE0Op3Tvj6iPOfEpG+cancvqsfR7SQIOOuxZlb08V4lClNwyDry6XJsYHMFf3iaBNzNpZvaMXriu6YV8Z+8jukqfbjeX9q9jI29rdSNjjIxBKAHBQwIaImboYzEoNuKhlDYaJNezGdTIvOI3meSKdlzBDOqMfZn5nwcjglVH2a7GvZzi7zk91TrOyhvtll47DzsuC0HTkMqiMCdH8uszy5FV5Iqn0tBoNRpSglAYZu9tb8V85A6H53j8Dhud5cdSx4qnkQKfEIGiUwU6Z0tv5k+4s6xw0XYwtAtXtYVgTpcjMqSoj85w+2U3aRL563PBQqeyzXSfL3NJFy+Dee+rJO/LBSVWE6Ynk8vP34QWMQD/p/tReCz3C1USZyUAijeC7eQ+fH0ThKqK4L2VRHBky0yck+nDhzqqDlzNHB6faOs3sFLTr0fbDfjiwGRcDq97rAjHGd4brtxRIs8KVQXQ7zRMVBbewYPCpBB154xH/ISI+4x357I7PzfwavAS9PK4aTgjbxkIvGFe4AOIZbjU0JhH8hkKYYuVhfZCfQbYlHPifNFy2aMxIw4JOHs2w+dABRT0aL3htYk8VS8YZNFu4Cs3oXt+mBT1A5Orjj8fOAvwqiWcEFtaSk6+mu6sNe+GcjUQvvdwKKipfMOFHRSucH3A7H1FJHlTyk+vKZzo2eAEkwAVb45Bv3TK5o59KpfnVUygaCeHlf77nNhfynlZAkuQqtEu+BFuKMsP8zeCClZEYbA70Nwquzm0YXfVtmtVBtYY1tWBBTu8GvSccf0SWSxO/T9uHOvoXsb1ctmBsaPmMXldcX040v1YlD/6N8Kqzukj11YJjd2h9Moj86JqGGuzjcPBWcJsG6h1gvxUZRdFUNK+UJOfP+7MbGRVV183v8bBrLjo+ddDRQVbcRkYvr8X5fDQz8DD0uYUcHEpd2D+z07E7piTx/ccvtAZncb4sFXQ++Yc7Bnk/umP84U6lG6bh/J198c4cHmT+5fxhZgys8kfbUTSXKRy9nh//0KPF9tppR58OJ9CcG0SilWH8w2l/FM+SxP+dm17fa2Q7/53bGcPWf/gkGlDFVxIRqWKr02jwHrJaze33CMgCZyit8N/3LWxb/vt+UPx9v3ai9JLUgvNXstK9Tf6ug47NiazAOmoRclSLvRPVn2+pbDBq/lmpQM6h4rNTpZ61/ZWBaHxe/r77qN647WxpePAV8crqpHSvw79jXbGTzkOPDUQaWX1vLbXambltw18t0BXhv7SGG/b6qwMynQb/Tweqq3nczf4vzeFoZqb2n7WEcw30e/V3NRMy9v+zmtalgo4l/6wWODUj4f+jWZ2PlOB4ofTPCRyWqgV055GIwu+IIRz501lGfCkWWsta24YOKRl0SAEvwL3mr//+CLl5R4+Ywtf+DITpzpcskMNzs0HHJX1jR/CLzuTuW+yhb9PxNH98cCUIb1wrvhL46LT7aTf6oIse39iSiETS9pRsCbuoCsY1kWXEW/RKl6gZrr0r1XN9oBMZSQixjFfQ4UMwiu+DWvDdiEet+wQpocRAgqLaZWrqTjJGcJJ6dHkB48u+HlLw+kjcXUSEaMI6wmmE214yT+7q42QB6jHDF3ViRbEmlcQhks18cBDjdeaO3kXv87lxhQ4bPPHa3aaow8ZFrgpmS3Z0/BIlRJuk7NFT+I3MZkV4E4ITQ0ejiFg8AK9SyRndFXFK9I0rkhSIIohnfuXD8Yq48HznDL8JvL0DJE7lNkrXMWkUEm+hN5KUTYp2o5XE42qo3mtPD2d+o4f6McHOdCIh+dL4FUEKJ2ldhxwubPqpjr8xw20UW40T52tXbQ10rtopstOXXvdmUscq9uB/UaCQXGsqXGvq3XETpSBhRQWaWWCvR19WzQtYDeteB7/NaCWgXkyIqcn9CyNJPffk8DDIAeEjOvS6Rn5HGl75XNfD1X+TF185AQIhgbtXJjVeLwVmUPgKTRBIw2TBDgC4Vd2Lr/DUQJJgQQl2x2dndU35yWSwyVWV+jokjFAjMtSpI69VcdakjNNRSOppx/MGXkoB4uyKODt9kK6j+YVln4WafTzXewVUMXZkiuVMihzQd5EOngWqHmFdhwekyb4gNmAn1/YX5BsN+HJuEib9Pl0pNk6p5N4jHRtiJG+VRibSaykKKh4Qyl1d1TyrC8ft7DGrKI2YJUzQ2BrQ6EJLMycol5LGXL+jSH80WEPnoasZQcS+IGiv7LiScx94R0TmgLHOBevRSPqIumgWpf5KIvKZqqd0nkQtPnVeipZ2oikiD/0tcqm1SppAX6dRmGqxpo40J0doNb+jv2OJD/aHDEa9PjIU7+QqZfA9unI2D0LjOWyvy6K8PGSzgaVjR1C7ZSe45RSj7uRjC36EvDZmDZuRBY2FMFY4qtbh4XoUAL1tjYqakKJ9SngMb/L0RZ7T4OHcAnnKIqEjP6TpYJQKI4cC7cKyMCtt8LHyKjKF9ubDtcZE3E7qY4lwZbEO+/l65FONdPeM5rQvHt+fGUBZ2iLidiFyl6kWkNX0vblkcsnGXRVJboZsKiVBPy8PDzi6G7+dLWRRomc5MpbSrT0hWSeHfv7eegbLy/Gbx/MH4zpREXJqHGQVydBJHVwpLu/of/gHehaeRU5PEf4R+RuHggmWGLmQRajigWvys1x46EsnrvWHe4uBVWifSPMKRMn4uUF1+Vw0oAMZSySXleK89hU5mt+yOva8EAI43hy7EmRsxsX1e/ULig5rFN+oHfpXVRUydcG4hajx8Kv1XswgC6nAD8RRIEumKcFl4LdEL3B80dBQuak0XOdLABsEr2MQHepp5S7UZtrkTYrDmYRsJT9oXr19zWCDR1CHI8HZLJ4NX0C7SV5uFa9xF6cTxV/ny/3XtPJPl8zP//tt+58emv/TU1P5n0aZsPv4v70yj7/+unUef/g/);labelBackgroundColor=none;container=1;collapsible=0;aspect=fixed;rounded=0;sketch=0;" vertex="1" parent="LSXB3r_5FRirlL14GcBj-8">
          <mxGeometry x="20" y="130" width="70" height="70" as="geometry" />
        </mxCell>
        <mxCell id="LSXB3r_5FRirlL14GcBj-28" value="" style="fontColor=#000000;verticalAlign=middle;verticalLabelPosition=middle;labelPosition=right;align=left;html=1;outlineConnect=0;fillColor=#d6d6d6;strokeColor=#999;gradientColor=none;gradientDirection=north;strokeWidth=2;shape=stencil(fVHLTsQwDPyaHBuFJIvKEXXhhMRt724b0ojmoaTdXf4epwahrgApj/HMOLIdproyQTJMCijJDAtTRyblGbKDfkZaojIReScFxQG8IepoegcBqZdoI4mXnVk9MfHIKhY/QHVvMRub4xrGnePG9+12HmytsOSBHp+WJRWm0PeMa01zhJFf3LvzZnTAY7ZI1zjVGPEQvY+hIFqm1fd439ddj9dkwozVN+PWy0nycq7putXp2vyq8hQsNXuleh74oSXig4hGcr0fhxC81Tfj1Pwrq/bxzxxUh4Y/RoZgk+kXN+UT);labelBackgroundColor=none;glass=0;container=1;collapsible=0;aspect=fixed;rounded=0;sketch=0;" vertex="1" parent="LSXB3r_5FRirlL14GcBj-8">
          <mxGeometry x="20" y="230" width="70" height="70" as="geometry" />
        </mxCell>
        <mxCell id="LSXB3r_5FRirlL14GcBj-36" value="" style="fontColor=#000000;verticalAlign=middle;verticalLabelPosition=middle;labelPosition=right;align=left;html=1;outlineConnect=0;fillColor=#d6d6d6;strokeColor=#999;gradientColor=none;gradientDirection=north;strokeWidth=2;shape=stencil(zVRJkqMwEHwNdwzGy5FF0Gy2sRBgbmLfjdnN60e0Zw7dLxiCEFmZhFSqqEqKFfsMtzHF0Lhv43CgWIlimAl3OQ4qQjNEyT7kjqE/cYPr+EPduudSPxfCOeZHm3/8ywKK5qkN0xQrJs8uTrvn2EQ/hH9yXuN0S6Tvws8mER4wxfJ/ebltUooVAtzHhz3FiLkjXO8zrSvpkyfPBaIMoJQgxSKLUIr8Y/vO+9ZBBIgIVMBy7vvmykSsy6yWIMg6BFXLQ69X1PH43mdakIKI4yFK1QqpmgH5Gp2+6NvDnPRmfz374nkuGpjcokPRRK7I4fK1He5KYdvCSIORLviAwZqio1AzENzS/uLKCkyXaEeCxCiKZ64OZ10OCiGCY8O9CO3TZp6NBAkliYZXXViOEtglPHn+yW+EMIa+q5THM626ttr7BlKyu5h1d+duzIEMdOWsOQKIrZcofRmOCIYRTqt4q+jnHgaFFo2ZkfNAMq1H6osrEFXFShf+LdeqaZmZlgv/hwZN9+Go19IGzTSTakQO6Sl5FWuwCm9Q6wgm62WsUAud41MN+7otp/sL8cX9KoJMnXAlvmXJyC7sIvFexi0QbgVt3qdxtZAc2FuJb/NJe3qxUyZSHwbGWpukAeXySBaNUy+ZVxhTZQJuOKwwNEMX4tDX6Pg8V04Ae7fGbOyZrtDppmH3ZmMZX3liS2M1JYsRtkqNPevhcwcbskyycErmDTpj+gKH78NwyMx1yLtgp0tNILt0x6+3i3tZGOaszviY2LGpBGVWlZ5uhwhNx/12/1XDwm6qhxYeSNh5eOUergOOYJyOjK1wjCTL+3NkvrTdbfVGuLXU5Bv29USuew13Z6O7cnV7O8ghur1IgrjamjEcNd11VncimLwjG5dFTsBJbvd0rSU6D3jelJLTsqkgk+AUO6jfZowXtDviQFdqaZpu0/o9sGR4lw/66xTvH9H8y0d++8qWxk/H2Cbmt2l8sx/T+ib+AA==);labelBackgroundColor=none;aspect=fixed;rounded=0;sketch=0;" vertex="1" parent="LSXB3r_5FRirlL14GcBj-28">
          <mxGeometry x="50" y="4" width="20" height="20" as="geometry" />
        </mxCell>
        <mxCell id="LSXB3r_5FRirlL14GcBj-37" value="" style="fontColor=#000000;verticalAlign=middle;verticalLabelPosition=middle;labelPosition=right;align=left;html=1;outlineConnect=0;fillColor=#d6d6d6;strokeColor=#999;gradientColor=none;gradientDirection=north;strokeWidth=2;shape=stencil(zVRJkqMwEHwNdwzGy5FF0Gy2sRBgbmLfjdnN60e0Zw7dLxiCEFmZhFSqqEqKFfsMtzHF0Lhv43CgWIlimAl3OQ4qQjNEyT7kjqE/cYPr+EPduudSPxfCOeZHm3/8ywKK5qkN0xQrJs8uTrvn2EQ/hH9yXuN0S6Tvws8mER4wxfJ/ebltUooVAtzHhz3FiLkjXO8zrSvpkyfPBaIMoJQgxSKLUIr8Y/vO+9ZBBIgIVMBy7vvmykSsy6yWIMg6BFXLQ69X1PH43mdakIKI4yFK1QqpmgH5Gp2+6NvDnPRmfz374nkuGpjcokPRRK7I4fK1He5KYdvCSIORLviAwZqio1AzENzS/uLKCkyXaEeCxCiKZ64OZ10OCiGCY8O9CO3TZp6NBAkliYZXXViOEtglPHn+yW+EMIa+q5THM626ttr7BlKyu5h1d+duzIEMdOWsOQKIrZcofRmOCIYRTqt4q+jnHgaFFo2ZkfNAMq1H6osrEFXFShf+LdeqaZmZlgv/hwZN9+Go19IGzTSTakQO6Sl5FWuwCm9Q6wgm62WsUAud41MN+7otp/sL8cX9KoJMnXAlvmXJyC7sIvFexi0QbgVt3qdxtZAc2FuJb/NJe3qxUyZSHwbGWpukAeXySBaNUy+ZVxhTZQJuOKwwNEMX4tDX6Pg8V04Ae7fGbOyZrtDppmH3ZmMZX3liS2M1JYsRtkqNPevhcwcbskyycErmDTpj+gKH78NwyMx1yLtgp0tNILt0x6+3i3tZGOaszviY2LGpBGVWlZ5uhwhNx/12/1XDwm6qhxYeSNh5eOUergOOYJyOjK1wjCTL+3NkvrTdbfVGuLXU5Bv29USuew13Z6O7cnV7O8ghur1IgrjamjEcNd11VncimLwjG5dFTsBJbvd0rSU6D3jelJLTsqkgk+AUO6jfZowXtDviQFdqaZpu0/o9sGR4lw/66xTvH9H8y0d++8qWxk/H2Cbmt2l8sx/T+ib+AA==);labelBackgroundColor=none;aspect=fixed;rounded=0;sketch=0;" vertex="1" parent="LSXB3r_5FRirlL14GcBj-8">
          <mxGeometry x="90" y="120" width="20" height="20" as="geometry" />
        </mxCell>
        <mxCell id="LSXB3r_5FRirlL14GcBj-38" value="" style="fontColor=#000000;verticalAlign=middle;verticalLabelPosition=middle;labelPosition=right;align=left;html=1;outlineConnect=0;fillColor=#d6d6d6;strokeColor=#999;gradientColor=none;gradientDirection=north;strokeWidth=2;shape=stencil(XVXJtqo6EP0a53TqcZiEHmkCguAMpA99K379w+N9g3uzWKRqV1JJKpXaBxaNedglB4YKxy55TgeWPzDMEg5FGFU7zOyW/AvSDPXVm7BOvpA1tK+6fe0YapspLJpk+A5Z/5rCCgcKHD4ydWBR2g5JNrRzE/9l+N9c1GH22c84PL9O4nAKDyz4g4tdkx1YGIVjcuIODCo8aNorpUlZC/ZmOG4uuNkuSXj/QYJA8OlXrvPcXdgdQqoSsGdzjcnErO/3OkSCh5WqUxy3VUzpcnSwUJRQ9gBSo0yoKKBWJnBSuM/Fc9Ci1S/pcVuWhreszeqpgJ6d/CajR8jGIAIgMhkmEpU3MNOn9ATiCm+h6T9FCs3Zm2+ffPcDzGk/S05RmgWE851pdy083y+InoY43aMo7l9aYVV7v8fLLi8LMz3JrRJIiStgXVWJKeapRE5vxCpSA46UEaa13Falul48VDuGoSI9GElfe1LdQaXtuk/4QG2oWne0va4krk03bl5Ku9NMNdhzFOnv/NK9kdo1QkImP/CnST/u60NXdj6hY9gsvo7kdw6fSecOYoXT8woIW2Hn03Jas1pX5mo15W2euyKlaet8ryO2WENveV9WYAkU6fNCrBuL+3mFM2NgNrOSYj/JininkS3f5yzTo8I9QnDFx300OrrlGWIPeKuIKlIUfRUSM0nNV56Xw9VNNTm1JBGsn7GcW7zp5uT2yrknLvY24odbwjNeR3gwTkpbdO/OcuunS0wB2qqHxEunULV7uytl4fSE5x06Uzuj09qWRKFUIH9wsWOn5zgqck+xde76XFfS7Psz7jw1NLOSUO30DKlTG+jGJ2uhcvZxmwksnx6vW9cvQmYWzjMmraRqXPg0fgQMwTZ0ZQ1y9X6LU0TowgyLzOyUe48TWZw7FTyqHyBLE3v5pMNG+7zuY/qZKXZ9CR7pnLccGCr/FtLyg+EiM8oA8lhC2UTviaARo1HjVZGuLBh3PSQGIv0i36Rk6/FNw0wwN2Go9gG4IK3jMX+aJXOo/U0zlpWtrliK2H3dgnRbghMKm4B7r+/M9s+i1wJ3miyPWj1HJBbShpzYtpJ+8ticU8thsCuS8Yf3K2ePerMIT7i/dBG8UObxk3xM0yELRDJFbEiKY609AN3KyjQZTuZsss6XzdIoy9WZMb2hE8mmAs3OC27Oydkx4xpW2MkwdK4aap2HiLO39oK1V/D6IKDgHgjruKr5I/PRG/RCbbuKvo340XMIXhMj4XTU41XYd8TGeKj7JQuRsakbdAVJwEa+36C2CdBBLWbzJ++PSVNkkiPpt5Fdipg7u+cb3vANgRoY1oU5pqF98jSgKjcIUXwzP29tkCN5xI4j/dxGn95dSlwa5qnJmsFqEhGUC3U2pAmU1dVBIg5eXBz2n5umZ63KT6K4Ch0vXdH8Xj4VIa6htwZxvacgb8MrpOohgMdk4TPMB/KRwk2Bbxi8ykDFJQqGmuBslCjeud7zUV5BLg6YgVzGlZ4O84ciKTQUAqYQC7RGWFS6INMlhi90N3hfH+AlKcJjGrOgcoV2++S0S4QVzUr8wE6poFxDwgPuBQCWylXRkvQpHn/frDMrZFSnNWz4c1hU/WnHErT26SeoRu9bP2Ajcbf09tifwG9zXM+0tSMKFOVb9HcCeH2lP6Sz/aWt/1DSvxT1qZ9/s86nnP5LPL/ol/9+gf8A);labelBackgroundColor=none;aspect=fixed;rounded=0;sketch=0;" vertex="1" parent="LSXB3r_5FRirlL14GcBj-8">
          <mxGeometry x="580" y="150" width="20" height="20" as="geometry" />
        </mxCell>
        <mxCell id="LSXB3r_5FRirlL14GcBj-41" value="" style="fontColor=#000000;verticalAlign=middle;verticalLabelPosition=middle;labelPosition=right;align=left;html=1;outlineConnect=0;fillColor=#d6d6d6;strokeColor=#999;gradientColor=none;gradientDirection=north;strokeWidth=2;shape=stencil(fVFND4IwDP01u5K6aoSj4sfFGA9ePJmJY6Dglg1F/fUWpjGQaLIlfa+vXV/HMHaZMJJxEM7IpGI4Y5zfhM3FoSCaUybz5ICDxxdRSk+ZdFro5Cztekn8SivtFXWnAucMJqyJ4RtgnGorldXXy7Gj6Ok+6rwUqhnT2cQ3z6rKOIakW9AxBxdUdV6qINFlg61O80Lu2zJHRIQhhCEMgQ+i0QjHEc25cM9ss93scD8EuNMNTkZ5B3f/yNvxo4Pq3j76+2km+uMIYxL8ME9Bm/af0mZe);labelBackgroundColor=none;shadow=0;glass=0;sketch=1;rounded=0;" vertex="1" parent="LSXB3r_5FRirlL14GcBj-8">
          <mxGeometry x="140" y="130" width="50" height="50" as="geometry" />
        </mxCell>
        <mxCell id="LSXB3r_5FRirlL14GcBj-42" value="" style="fontColor=#000000;verticalAlign=middle;verticalLabelPosition=middle;labelPosition=right;align=left;html=1;outlineConnect=0;fillColor=#d6d6d6;strokeColor=#999;gradientColor=none;gradientDirection=north;strokeWidth=2;shape=stencil(7XrHkqtas+bT7DlOEhouPAjvYSZAeCEkJNzT31yqY/Y5t2/H3xE96EFXxd7AMrnS55cUv2h+qq/j7RdFXKfxlr9/0cIvipqvr+aa9TBMwUz9M0hSxM/zcL3ffoaCIXt8hgLG9Ef1+Jld/rGaFn8R6Be+J/6+ofny8bpVr+/e31f8a92fq5v7tcIsTq/8h3hxfV9/0eiPcWkcql80l12n25H5RfFNyFnuQlzk6oHgx/SCWgwquHPwo4h4lMCVy/NnfccjfMypUWzADdPC40ddJGb0zxTcy1HUB5HiJn6wHBPq/NbvUpdRWq8P9TtHPz+2cGZyWWqvVEiostanVP+xPX3+nNhGlfvO9rTYDIjFjzkhjerRU8YtDc2j37vt7f5urchp7J2pbKU63mRyyaKQSDyOyaL1k+8jA/vrVD43qT/i53cau7W+qdVNGJks5ojrTjRO5M7JPagikXRU0ZxzuDcbZtEjYzEEtTL37mP4CWHswabzaIOxRd/Rqu/GovsiabXBYrUGo/Ko+uNfYzeIze/u3eo10W3+4mdL5eSs3muiUNBR3850QeefYjc+Ga0N+i4eLL+bgf5stOob79dj85ANbn3jyU++GX/T7dw+p8ztimWIzh9V0bq0HevkfiYLgWjUv88EOdHvZwKdw49OvEObUcR8kyWQR/wYPOhcqd+ZfNitu9uC7h6F4i5Ww865Em4ZfwDd5HMqG3MarT3o+lMoxmx4zPrVqUxO2WAcc7meC/m8X+Xz8jsNmPskP7r+fP2B5h4Z7c45Vc85z656i+Z/8s2Zvk80V8UlcuEx69Rh/8uH7uaceWcmiRE+f9Ep8v0PHmhXKgbnP5T7vIdKv6Te2Utjcy5irU2DkEqjA6H+0FysztzSSCLATkFGnSeQi/uhxTkgJ4ybIAuqjBboeegRgh/DPJ1v3VenuTAK+T2sCzkUk9jtbU/98SMf0bqvUqGg7lbrrFarHmAMfAotX13E6OhH5+4apQdXlogU9GG04IM8sZgbsZm9sxn7gzDax2p5MOY/FoP/k2eyL2Spg/Pq/5O9YN9jej9vGcgLco5wHUA3S3bPQZbfbAYyZdQ65x0JPhGc1db497zmEKaT38/3K/gL0NqDruBVsZecPVktP6FAdtDXD79+QBy96LADz+AfoeaCH+Nx/d6PqTC26d2gLJwjeGK3BAf2JospqG9LNiizIfskkjpDALpCWJut86N3kTQhVuaEDt/Ynl6AfeLHh8DH54TqO2v4necHYfrVnrZoTzyCSfaw0SOtNmXxbQkV6I1skzatUz9tjLuxpwL67Zzzdo2KMbtLkyuf2yIie4jd3+RwsRxNEgVgC4MwG4IwBWeDHMKYsvNOInWBM4Em1xo7okwqbC1f/Mb8X/qRe9DPebv5OOd9Y95PY/EXxanCirPLMZO76g/vPyaR+c0OoPn2D+/rwKv2QgypQhjHbDCJJDqAt/cirMHe9rlGoJE7ZE3f7Y0daxlsCFo2/IpIebJOWq7WfbMzZGMHbdNpZBywBf88s6DqPmv/B0/zH9vvnvbnnpw63wulqIFHLqUgqwh/Z+Xgt2yiCipkCbG6SFjL7lzQxqg27H8gfUYdqDTWiDTCfmESbpwSYHc4UcI1oc8HA/wi3SAvVEnMLZnctxA3Y0Yxc3E/dH/Xrt9zFkdkG/eP+ND3v+wyXb2/NF0n9JfWWR3Murj/p1Yw78meMAms132DMYXkbbaIMBrslxA7UVgnkbOYLfhPJFIm/x9a4V/x/n/HCn/J014hfmE/1G51/tM6y/xTDc0+x57Ln//I7qN6jU2cVQ/Yy3X6qzkRsjD4a78Ucj9n7Xf917pB58o/636r9pjeP1BE+EmBc8hVAG/s2RztkAHIIl28wOVCpb2eCnrsyDWU83IF5ha2+/hWWt6mEzxRzt0jzC6kVirQEisJRe6ackhq+KJ2Vt0ZHqpz71LqpCUO1cVNnTw9b+qk1Oe9Ta5UXTof2PmknRc4nSmb/FQfE98OJzuj8xsoQ6Kf5fPsXR7bMZ6tfD+c+7Nx7nv9cr2nxqtoFVhDvDW21srHJ5M6YMrpthSVCbl5ves8lYtlXYhezyT79LCGl7Cg69y0Hr/tx/p2kYRE35ahiHN1PdqCencAvx2anV15fa6Nt6ZXiz7qm/PcSbkNiQvAsMqr5vKSwsnP5/rsRNkRt64NmbYlqcDg8YodzWX8iU5Moqqusq818HWcuAWhh6ma9ou1eEqlqAQV2elireSTtRcMFfnoSG90+3jX2big4TYwgl/fdNi92q6DqkfFBy842NyF8MXEB+Lmwhx/j08xza1AQkVVfCtPQsiI00kUDJTeOoY5y0x8Qgty6CkqM1nf9y0LD4KsmkBrYMxsHQGUovodV/LKUmw7YuEi7yqI6KlapsNb79ZZkOo5RFGa5urjBTp39Ov59LiZn/1YHoduobFSvkC3sdrPYTwPDovCdEnrWwx8YlAMl9iHVXDVPyOS9gERvPheA8FBgm6Vx/im8h92Eavl/bkgj3u0sDrG6NtX4+qZgNvU02W5ooe+vwYYrrPgApcdeQJPMQ/uYQ8zUH8MCZWo8dT9vePQRrO4v/e9Ike0mMjVkxARaH/N9pcjSemog0roiFPSsFpQWxwPxSur3KM7Ig/9UJcULEpUWpKnBy/A+l1ES0gS5iNmgsZdAmUnmsE7okdJjomU65POyI/zhm0s7+i1R1LfHa08t2eXUMq5mhATr9MdYfcynTUuXbAWCm07MRDEo3OpgO6FYK3cuIoOaqYnkSAp3T9YAVuwWn9r7CpcV/p1j61ccGxhFjYHPaAX6fXzmTzGI5j5ieVItAHL4diH/aQSssOJWTitiN+LVBwE7GMGp2o7zR1UNAEFATvhSVh42eYJgO1BXDKijB68WuoZ4h5cjyah4Rbex30PrM2BBOVjfXBMlaMEhpILstIARo69/TENG2kKHuVEBCpHJ3YaxN1REdc4FuICpHJ+uaAlzxlQwGsmqZtnQkcla46IjIVLLICi5+HGL5y8j/OKNJ8+n40AydxVQbxz1uFx903cXWkVgUbfQrZBwGNyhyzQI7vOIeowYz7BIwnxlQz9Gm8I6K8fB/kmYcMN8dPT/fE/j/77A0Tvz0X97w//D/7ky8/1f2b63xKIP5fqLxLEH/f/Xyf/oU50jflp5bUm8zWD8wSk4Ec/2iqtMitjwdOc2dQR6t6Fm/AMnr4O9IqQUW0S5k8l7UuDkGUsEuYHu6+ZIu91tjT1gI8yrL0YjvmX1RZHG9QHYbSdwYAUixyFbj2MMjiIMJgUZy9RMV3RtODRmyqRZ9s1XGC/EFhy9+IukZs8v5wYsb185QvsN04RoxMuzVgKA4djBGrbExIp9xlNs7+qT3ptu0v+jabLeehUor+K19dmV7gIGPhMXRCPGQYSpU6+3cy/nJeU8fAJggDkm53my9cT7pZp4ueuAnXzVSk98wltE/u4qTEmbp0+Mrn3GJ0YN6xnI4QtrXSLMY9SiDohwwAD6LJSYxtzs6oOSti+mpdSu7Fe0mDNqtb+zez3iD0+Kk/M2J89rt2syrs8vGNyOiIDFvq1hYuSNUFiT1jja1OKLg4ZXo64Chf7UyqKbh3tIpoUKjaGOjMcXsyKS45TIikI5Yk19ZlBvS8IJypSlB1XWFQJrzssKIHGkylc/Tr4k+EH1PlVA6ZOJ9ugxnI19fanYn3Nf8yHij3rm0XPlyYPSBYrMICuQ6FJr41gWap3O300HaG9bSFg65VVqFzwr+3KxsQ10VlGoALUzMb+6XLz5B9cjpsgb3IkLvRvgDu8rB+oaHyPRXZZLoivR1cA5+Kmgi2GvUXZ6yzrypKmaz/7DK4VynyGfN8e5Pc9Dx/GPFQQNpe6YTBIOMaILktxM1trC07Sw0KaKnQP69A4pJ3L1iI8YyXMs1hP6L18BR26WCfgjy7tsD6k+9cdE+VbwxLrFPexsCxnnd1XT3C4i/yOSkpBj+VweZM5xrap+NmM5+HpTCk9OsLj5i63W1iZdHmHrho7Ix9iy4RY85pxpV6uImEcYZGOWllXv4UoTdLBdp51BusK6dX0bLoXDgoOZHwv8PtC6cVoBNQsdH+dFoxy1lDwrneyEJz26GrK81Ej05YyrcmLtjDsaaAYLgpaqeCZibKSnECdPYQgBZOHLxyem4FkRKNnzI5YbfN+HdCiBfTqcAR30y/5SKueUk+fz8yXeeMfKF9+SQt3nOeItfa8CDKZtkHzj4Vj5iPXgETkId4/rrDVA5t4BkfYIu0LJwwFE+lg+gP5vtDK6K/ysxeRgE6317oPdh2dTsdbP1c8apC9MKcizKzpI8X25xIcWHHhHftCdQy0J8+oYDKpxgjAgPO6VFjZJnpESD3sL2Y07aaehQvLObzDwfyFenH3YxJW1no6vpMTKjgkClurMicrjhNIOrVCnFTWLS4Mia7dMeFVgXA73DNAYwechuBwEr/wLhI567hkn1ugkMJ567kq+wiNirrJOFLXu+kyG2NvgnIM1retLS+lLCcZgYHNlvZmcltW41nMlxJxXIRQRs1P/7h+gEd3y5adRYJajShnvXg88ic2pYjD3O2jhfHO64Gsb+Rf5/I0P7EvyfvtzZRI5a86xobxfsTq59ejs2Wfs6kqNbryebp8PNdwopJ4NWVMGYwjV5RYtOxc2vMSIMdJK8Zyh+d8O76t1/tDUJ4AyH6NwLyCA3aPzygeznnSnd6l9IAjspbnA26mT6kXkxQMBAvFFvUD0kuMKOzhj3kqgKcHCJIdslxuAsiofacpV0YaTnL/cbo1slS+4o8z7ZXn4kB55mGxqwille2cz1v2vL+7OxYc6yc4BqgQVu16d3T7gK1eRs8nunw1QmY4m52g+dhXARosuVqxb4OPPj8H/UQWRVzcXq8Pk/kOV5lPphPzTbIPVkBiYczbiXK5QKDj8EafwU+5+4eMS9ZnkcNDfAjtoblBlcC+tA0hEd/J42c7kp2DNMGA5Pg4M4vbMfmbxCKv2a0n0tR9oCGk42d+sq6kH4cOFgUnuzOkT4EEstVJGMIJhm/Dc7IOQRwSGtQfSRjMYVT8k3s/ec67fM3mMA3mrT2LqFDcfCweYH/qeDo8PudmQiTEy9yX23Ogt/Ad43TcESnDTxyjL1LIbHmBD+nk184QVISBaC4QHC6LpyK44d7vSsb2o1/4JQJ7FHjmQf4ILIV6RMYOg/jFWGSauCq4XO5L9zV6OFTQuyHuyb9PzpOcP8RGxsNQXWOLq7jqkSvjLFvltceKMRwoVQzXmHesdb25jccowkcIq8I0J7JcbOznDj/FNM6R1/fnWPqiiC6Ctyju5B/niLyDTZQAHe3G8xERzU9M2Z/74VJBnnb498u9je/qQ+sJhipL2V8OxX78RH01cQns3I2rr13eOHdcuk2DziOsCuSxbxDz1ApAhX8It5BgoIthBMci0F2lXj5O1PGnRH7XXfphMRDp2A4xXLhjOzIAsiJ0B3tqt2dxg0bwUtlIt7XsPbL75ciyuECM3/6NTWb2hqREccR5Tq/YIYaEhfZGRQOklY7F5pMd4ckzQnfX9kghZjsq622I2QmDrcOJc8B7WJ56H1sKCq1Q2R06KjjacKDkHri/Aae7/PlYsFQuITtQEpM6+rFto4rHEaPvODz4aTO4iXvo0B8BGnsKOTpl5YwS/oB0X5wXXKEBkFjvo15dEHVrcck5hS9tAaCk4g6Jvl6K+MS20MFdDAVj0wVAoDUUdyTyg7MkgFAFZCIhimkMd5DVEDhzTRhpodzhiXgQFajijwqDWFhaacnbXGTUtuSmwViliOglUScnjicbrHU9pwauzTIa0L2NW/MHD3+t1kAXdt0S9juyKAu6ItHhoJQbIB5AsM6o0fjF1IuoApQG+j94eYFJEYUnxlDRaHwwbw7U3RTMA8jT4S9I3Pov3rU7gtGfo4QgQQZ8jKSf/YDK5lN/W1HOxUheLz8cchi5Q5LidEDXoAlOlFUBex5/brlE2JFZN/yCafDwqzmETZhIBV2Kk7zVCeQCDPdEftFwlL7m+iQ7fOVAH0852hf2q/B7A1eI1pIdrwSaREFbzA42gu04rkHSXqzMfNaaBEUXVax0B/p9jDGhD5ZYFJnJnC6Qc1PHeEKuO3ybDhU50ok+0hpm1ZvQ68J1FWfwDtYdjwVxifJ4It47AjAU9OgCHTPH/vQjdsUDrecEnrbVKsqQWGH9EKIDSrig7Eo1SOZDzbXrTfU7LIVcNYg6k3tH2eEDpHabwO8OSGOx/NYDqmfp34iZf95FzlFJXWsebzgH80pyhhCXURw+QDMC7EunWUyBHSQ/oKs/4H5huj8DaGaUYLobPOMfQXQk4UIwlyVR5s/B4BxkXrTWGZHybQ7AXgL29Ugln8BP5QUoBUYV/H4NNA4YxZncMUemUIF0+f2GGyvcbHEbUVsWmQAz/DX0lZXHg4tcodi6c7UZi0Dg3u8u79UvHi18i2yBnKWJu2CbiL1AmWoiO6Cxh2AQJi+86wi/YAEY76kqQ3kcA6miEfbPZK2oT5BoAKmuV5nVQSpMbcKCk/0L8VGFHEZTZa+asFFEseLK/cCGLLqgSsuJriHM3olQgGRHcYciC6cac+EFfWsVWqVXSJQrji5s112X0UWBoHr146069AC+XyGb6+JRi3jwNad/eTeuHx3wgnv1RDhwSo4fsL1qXX7zkTstnCMZaFMp83Sy3h2XI/fCd+rN9u7Qh5qgX/mWC+BvDZjDvYBmtYR+ooArkA1OpDnh5FxQowXEEzi/HxT5DEhGqwRmLEU2lSZXR7x6FYfWGtUcQRdR6cvN3WYe09Opoasv4Gz8xD8ugrL7lwqBS3dTannxgiJYFOO+wk9DaLFEsd8j/KaugwCuUYhRj52GUNRUmLkdADtOoDkfkTezlsFrE4XT2K3o1LiR0YfTxDGroZYFmjM1ujML5gL0V3aeFshHCrqhrpg8P2uQ5RO5r2ffDp7Ql0zaG7daUAid04QzsC4Y3SPye6WqOVbwV1aacJ4NwfW1xl4dKDcxfSoGixFwVwaurXTVpCF7JK0JJvGbL09SN1Hb0fJET5ItJ+AFSRzNy6knNhBldns8++j109HHqL97V0EVfgDAabDwe+Urr4pt45cJEggYZQsSByCEUkXYucIPgexIZyrXvm+zHFK7SPcxY0wnxUjstBAPLAuHLE5etbFVxcuiI4xa2fw14/TM8fzj+5ezrZlElePhtsDQhP3mnIvohGr0ybZWYaF7EAatn/HfMrarSkOlxJWF7IUx8qbPVg4/r056ye+8j3Pn+Z/vOdafTy7++PZj+8fT8q8vQ/79pQhuhv8333fQPG6p/9efgsDNd/rn85TvzH8B);labelBackgroundColor=none;shadow=0;glass=0;sketch=1;rounded=0;" vertex="1" parent="LSXB3r_5FRirlL14GcBj-8">
          <mxGeometry x="200" y="130" width="80" height="70" as="geometry" />
        </mxCell>
        <mxCell id="LSXB3r_5FRirlL14GcBj-19" value="&lt;span style=&quot;font-weight: 400&quot;&gt;proxmox&lt;/span&gt;" style="whiteSpace=wrap;html=1;fillColor=#ffffff;strokeWidth=3;rounded=1;arcSize=4;glass=0;comic=0;shadow=0;fontSize=64;align=left;labelPosition=center;verticalLabelPosition=middle;verticalAlign=middle;spacingLeft=10;connectable=0;container=1;collapsible=0;recursiveResize=0;fontStyle=1;fontColor=#e4e4e4;fontFamily=Titillium Web;spacingBottom=6;strokeColor=#CCCCCC;sketch=0;" vertex="1" parent="1">
          <mxGeometry x="89" y="90" width="550" height="80" as="geometry" />
        </mxCell>
        <mxCell id="LSXB3r_5FRirlL14GcBj-20" value="&lt;b style=&quot;font-family: &amp;#34;titillium web&amp;#34; ; font-size: 18px&quot;&gt;&lt;i&gt;pm.example.com&lt;br&gt;&lt;/i&gt;&lt;/b&gt;2x Xeon E5620&lt;br&gt;64GB RAM" style="text;html=1;align=left;verticalAlign=middle;resizable=0;points=[];autosize=1;fontSize=12;fontColor=#000;rounded=0;sketch=0;strokeColor=#FF6392;fillColor=#FFE45E;" vertex="1" parent="LSXB3r_5FRirlL14GcBj-19">
          <mxGeometry x="255" y="15" width="140" height="50" as="geometry" />
        </mxCell>
        <mxCell id="LSXB3r_5FRirlL14GcBj-21" value="&lt;p style=&quot;line-height: 100%&quot;&gt;&lt;b&gt;&lt;font style=&quot;font-size: 36px&quot;&gt;5&lt;/font&gt;&lt;font style=&quot;font-size: 18px&quot;&gt;&amp;nbsp;&lt;/font&gt;&lt;span&gt;TB&lt;/span&gt;&lt;/b&gt;&lt;br&gt;&lt;font style=&quot;font-size: 18px&quot; color=&quot;#aaaaaa&quot;&gt;&lt;i&gt;usable&lt;/i&gt;&lt;/font&gt;&lt;/p&gt;" style="text;html=1;align=right;verticalAlign=middle;resizable=0;points=[];autosize=1;fontSize=18;fontFamily=Titillium Web;fontColor=#000000;rounded=0;sketch=0;strokeColor=#FF6392;fillColor=#FFE45E;" vertex="1" parent="LSXB3r_5FRirlL14GcBj-19">
          <mxGeometry x="410" width="60" height="80" as="geometry" />
        </mxCell>
        <mxCell id="LSXB3r_5FRirlL14GcBj-10" value="" style="fontColor=#000000;verticalAlign=middle;verticalLabelPosition=middle;labelPosition=right;align=left;html=1;outlineConnect=0;fillColor=#d6d6d6;strokeColor=#999;gradientColor=none;gradientDirection=north;strokeWidth=2;shape=stencil(nPxXl6tMEiWA/pp+xwp4xBvhPbzhhTBCePj1N1P1dU/PXWPu3FrnVJUkSBcRO/aOTOpfOL+8sqn6F4Zky1QV679w4V8Ytmdzm+U9eBsDn7z+3kQx5O/1mA3V31v2/DmHzwne0z/N5+/T43+6Ghf/hbD/gr8j/8L5+jNXzfzZxvJ/+uDfH7dD1sChLHPx10iZrdm/cPaf96VpbP6Fc3m2VA/iXxjfhpzlHshTbj4s+DK94CUGDfhtPMA3jebZBPzkOio+I3gBH3NqFBvgt8UH33TxENlhOuBFEhL1QaS4iR8cjwRjVn2QuhzTen18rQX792ULDFHI0jvDQkSVtT7F+s329H2j6FaV+872tNgMkMOPOSGNXpOnTFcamg+/d9/VsL6tyGntm2hspXlUMnrkUYgkHkfk0bkV90SA+1+pzLSpP8HXaxq7L/1Sm0qYiDzmkOxGWidy92QImkhEHVU09wL8bnoEpkfGaQpqY97dZvjJYfkqovPsZQgirt8s+C/eus+e1pvFrLdBqjzb/PO/tVuWLgZ3sHpNdNv/jOdK5YRRhxdSKuxDvxi8xIutvI0tx7URtEdafrcbgrobb3WF9+uxSeaj+6p4dCsu43+027l9gZlXBucQMZuqaF36nl7JwKClgLTq/+gTzJP97z5BO+TfmnjkO8eQvZKlA/S9GTxYc+W15jJ5W9BGImqC9fuUintYLb3no7Elf2u1/eyJv14FT5/6m93zCNn/q8+7FEMMjiNTXKQQPruOkfd/7D+Ye+4xRBKzu+ERh46bQRVzvY5qYE4MWgxm78Zpn4/O+7/a7JL7v9rDOXDd8bdumPvWsXBJIxTc496/uXj/PRfuk+PuXmCvvfg/j+nIZAbJcRNc/8/YoK8Av7I680ojCXymBTnGLGBduL815Jz/uqdxEKMx3sAnePYTAl8G1+DF1f3GUgiTUAzhq5RDMYnd3vZU6Euk7osX8CM8FNTDequk9XZw8Br4FHv85h+zDx/6deSCe6X/P+5luixKSVeWkNRH2t/4POQ0WuQwUQe087ks/4OYF3j9/hwG/zdnP0AeXkTeoE9g71BzwdrB9/Whn1Jh6pNbAv6m3iaPkGYkHrofvk1ZXC1BRFMetO87WOI7RwLsafjB3xoAnwK+uyd4uKYRiXiBA3zzzwbWAN7H+u5/ttf0Mt/pYPigjRYFY+cGHcShKatrEiW34SGI5SdYEjmn5ReoIav/1Q9zZVE55YO0uDLzLv/847/m4cJ5vM239jYHkQRjxi2hIfXIAe0na+InZOohmOl3t/kWCVNw8AQD7cvu2xpSgBPo6+fjEfpKsWAvZHIEa/7fPvRwgK8AnzFz7GezW31DrPr3+F5TAec5dv/COFU4ITo8Aiw8/xPlwzmpiomAaECsQXqXcr/nb6RNcK2HXpACS4EWpHJ0Htn/3lL/7zP8d59j+UkjglHf6mH43Wr46moIZQA86GG8u4cpFOB18jAE9r/uMfd0dPEk1nonKmEUM2r3Z2FV+i/L8pzgXD80JVT+FYPxdzle3k9P3f9v8y8wCUsB8v+Pz/oNrMMrB5728yiIXjw5ZZHzSAGKJ5HWGrezWn74MngETW6QBfzmNCMHzElEwNoghqy9U19EgQX/Qa8Jz+Rw+/8x0v59z51jKVJi0pUG0gg9/P8dKf49J/OTRCRoA8ynpVsdZjme+Z98BCDw/9KTjv1/lSP+7vjlCc8Vk3+u/CcT/jIjvMLGX0cSmXMaOw0YP8zAl/qmwdVY+HxNIGcnT05zRSmozHkdnT7oy6htOMNt0wNVFNV60bfxrErjonwOpEjTN0bjNo6FdUWXo91UrIqXKWpSgHiFFIou73Ru4IqamN1b6vpjFG4zSeUvNEAY+W6VBdCU//rHkRmOzvse7/u2lyczg3fxEnx73Az4TgBWw8HR4vhJCH8kA+cVwEvgF+EYv58vlv79FAXi99Oxmz9CYol/96iO/fvJAULF/W/e+ffNrPBijx8bEoXjv5v7H5f+L975fx/L/35s/9eR/B9G9n8dx/9pXAfrjT4Jl7slBu3rqpWyEYHC3UWxWLKQYX/GqADzJYs9ZshwkXNzaKgWmIpK0QeTDERP+9JZxm1O56zUZi/VE4tBt7A8XSPMODliIB8GQ3rF6RI7PZDtfc6ndA/aWwdt6wt3gHyleZ/vd/6CZnecjn1AfyX7U+MUA0YnZXOPUZ/nFH7pPMHW72DveZJgNfQXvaRpC1JhOI3D9+/LDfVyw2OstPDCAm/a7/ebwgYfAELNYI8ywixFGHiJ1VkH6Z/eqCer3Ps0M9wpaAe0ylG6beP6ij6ojHYSQ06yUO8RCobRefqd3mu3jLbvl3mP6fs+zWMkO/aEDv7EOcKxS0OxRn/J3y4NWxwFnFqRGP1O4ZN6st0jIS1pa111DEgSxMq6A0AxmVpBmQoJFRet38ahHkpb2mN79PgygdDgtmFUvmi+otROWLyTPlHS84TBfUtKNfak4Eq3NtGuqlyNbak5PXOv4z4yE3vQd5HL2oI+u8cbSfllAK31ZVVFUb9SFW7A1jG2dubKtoe72sn7ve/gPSn6hnxvMTGYr4a2wiu8v+nLB584B5imNXfkN8ve64x+L/Am0ZYB7aQmnYB5ic4sNeaYYvX+dhd83fybK9nt51BSvv4s3fco7FrLUyJT0EocrXmQbSnm9yEWyNqx2+biWN8nlkgPVMSeRHB1MT3RlSptasUoBjtPS/VtReSYU0hMOswW5xM86fhbDbRfPMH1aWOPJowXg21nCaPWHhv9CeHbVzCD/KZAzO0EDX0pLl0mwMEaw5dPSTY4h0cGP/0glzFqz/L80OQzaVHm8chi9vPkm/JzCHCMgXaQBZ1Hd4GuLzbHdtdPNX4HwSPJeLp8IrxuuMje8HoCfs3VWExTeAQ+/VTBaCAesemtTV5u4dhLExPNYyoZhkHBBZXdnNC3j5wesWdV1+NcN02gV2+uYtWPVdRluWC56UwyzV32QEkPptq7yho9NToalkgsZcFs5d0lpTW6yR05Xx2n2rpFT3YSThZjyfBLFmBUucrVVLKi5tEBHnROtwkhBoDAzrRU+WB8jEpX9JZTaTyvOXz23nLDeKhNkjjKxp2pP6zYtq2mdqGjhoFVLB8Qc0kxGILdCZVrE8xcU1exy9F4xzUpffd4Rg9qIfgnd7Qxk32CzChvER8GchdjHkx9qI0kPppCdk5nBK/fr/PC3E8D6FtCV1ZTKyftBkl2CJcioI+V1WqnxZTBBn6UWYaZOLag8vabplkkPXtnDugzWWL/XNBsddXzhbFZkFmK1bXjaxyEZQWdqG44H5ozBUdyUC/oPJCkTPYpJhOureEX3KtwR6EE1sFWjf4udjEz5V4BRDkA95vEIBj2jlMP8EK3RJ9w+MJQbqoYvTWaBZgGmQ1CQ33Nb7ESoK2rbV3PpK2AwAcEZIvu+ybv9D7a+sm9VMCdM1znfQ+fvihAqtavv4byaYW6iq12w9cTIQyewz6nDTIBcq7tmRDVpSB5mTNemxgqwXn2dThF7YsxgmpYbgsH/XpLYHiUw/JPBZ21/sLYIbShcwZ5ueP3QzWcVbY+ik4WYzZouyi3eiQuyQpQ+6kOZKijf4avWdXv5yQblB2jnqMN3SdgxLMBRgdr5claihJUz/c++X7hbavRH573tQ7JTkM0ck/lacUe7w2XLDZj8H3UohuHxlicGX3lslGoSrsLGCypSHaK6CH4uS4QEdIvgOnz0Qze296SYSmSY3xBrFgEfUEZOz5NYDGm7t/y7lgtCAX+5W94vvJWArBQKk7zvv/DUbhcNhdVCTehu1Kr3xQNuLw5Q2cHkXa+3x+AUMeif/uLLK1JGqOYuTv0BfLALFhiTXwABW+JbQ51qT3jZlBt1JpZJDfXW4rYahXdT4atfoW/H2mKwlTa82usbwqALjuULVpV0DZpjsJGX944kS+C4RmGaItz7hJ2dllHNDlNEYUWK6G3fZYgV17UduovBeIcx1Pmg9kuKZbPVn8Ah3MvifkI3ztdcIjUUuIB/igpBEHQI8Vc5HIqb3irKPAUB6aVDLVqYEqrLnBZGiWslV+wbxrFjfc1JaZ8Zwjx6tm//mobR1EUS2MVx2kMYlDMyzCRNnIDsNt6uSAZnGRrCHc33iRMivvhWyytytLgn+Tytr2TClTWTLtH+eznS6LO6dK17lFccgz8mg4kaO8SJvnaS6lLW0eAHdsCU/ZD4LPyBg6/+sxbaRTbnyaSedDs0dSSIO52XVW35dqbaW7yn7dCVpO255tJ4PoDnsEUa5RrHb/Q7emgcF5PVn2U2Yrhz+7GG586iroW+JB2GOnOpfdJf0M93KLsIRqWVSKP1ZkauYB8bEYeGjA9/7sPsJP6xylgz2rVOv1hAzZxkWFb2ZVtmgEGoAOsvmQYqvJd+QYwjkNr87df+D7MGNJ+gm+t8vlygFV8XFux5Q9Gldu+QDOCST5F91HNk4lmU5iQbfNWA0Krxp2C6VVKD3bxAG27A52UComw7bHrcHF6ej1ms6DT6yUng9Z+azCsqzgCt9OL8HNZQktoBc1G6tNS/EVWx112LocmfqQK5Fbpd3Pz1GS38yOtPxfbujeqF1CKWf1Rdrib3h4UBX20rehjBBKI+wx3uU2BKEO6r7KAJnS8JOway3QgZQDfbzk2kcvNiWrZBslkPE84/bVyssZQXo+qISWmawcW4IG8KMqJFWxH5af4LCa5ZpyAS4C4OGSaSM60gGQDY7Y0PQC3JlC+WbBExOv3+cFwoyZe++PM18cDJjtxsFP6RRR0diSFqU6tRH+UQBZe96cBzThpfmg78shN67fswDshPnqZk5VPfMYoa1QMQjiagGiOKDfa/PwtP6GDUTXtDBBB/PYegAxS616Dk6gw4lp2HfB87uzHW6hewtkch1qfAJjfph+FKTdrJiDwDvAdie4iDmaO5sCWGLw+T7fY3gpDiHo4o1eWph1f1fs0dUP313Ypv8OvKygvGcLEI12wDE1B6zj4cMxKa9BMMM9G4Tn8K3Haem7UMoffq9mOHa9qRZLQ4l3RGf2x8Q+SmQWiUkcTikRpvRzTKZTX5QyOZaIlYvLONN8C1+YgKh9dcLx/MzwbSRxumbQVRUHo6I6iio3siy6KukP+c40JrqFn1paT6k4Wz/cF/auUtMxz4HdRgMyCFzOF05aziF3kLcfvdRSbIUoLLF3oytd/q0Qopboo4i94mxisAuhCIFSaqy1hoarLZM5+ccZx36z8S1mftJOXDoE6CIJcoJmDsQmAc3AMI6kNAbmppAgkjelS8A1V0NpN+Eq94cLAgphy7LHpNLM1toCnmTLNS6VEOaNDQM8sDxEmebFebrjVs3EMBVnxkAfzwbRCh3Eg8X7y5ntGeRHVcb5BX9iWAzkAWcHxKrDkykH4Q9S9i54C6q2pSa4xHhRyp9093bXdCMlrKPJyaNifvb0cBHHybEG75ljGOcCYYqFZ5sv//OinIj8G7+fvcizwvJzEEti3E4+bGo0Mqr5uKKBePPgLtrGXdvw+VGDe0+1A7jiOVGU6uREAzUhf1+RMmtkYnjlcaUKPGu8FBCBYHRLp0hiPm+el3AfEQ9ilZjQHHpfEBCqDbBR/GNtFZJLg1hBwywGh/mwFVnRmVbCiBH5sy82APEKi6jRJBouAQT2fTmIZck2x1Z/figDdua6T2Zv86P43NEbpdczqpE3vz8PSTJs4moilRcVFcqCFUFSFBFKMRpBQq+WEL6RF6YZ++Trcn0L4wtam3YWBa8kK/oH57/MJu+Etujnuar9oQaEvrucEaVKxKZJQsdnz1YCwmDhDJcES2ULfUwtpM3Ptf2DiLHe7W5cEF98Zsr1gOK8rjjr0RvFfahtLZf+HgJDnKqF54fyjRPfg7vI2xmncJMI9ciCr+vUNkS1GqSK+Ca6vqqqENZTLsSNjQGhdOEiU4F6P47UyeQtlfL3nlTwys/swsrPCdmLP48d8hzQO3TyilXWGhPQ95le6ZtcNwyBIqwOPIXwz7UpKiDnj2F8RR8X1iDnlmH1/bH+PVyw80P39XNzhnZvqtY/zQkGhR4eNAJvFlzuuUG9podSQYtyCZZ/4wT/2asTJfmIq50Ep9Q4osv90X9/D6TD1znEHUXnrLaqDk3INXdmskqpkP5iGmz3XNFjytIpsCGeMYt8RFJX2uLtB+czyOJjlr7LPtPU3jr+sD5e4ekgd5OVDz5LmWu+vitVxWGZI63icH5bCy4lDqcr93L+9vs5/Uz7ob6wTIU3E2kYEGxelVC8en6lU4x5cMTIYs7hfpKrinVIAr8rtj19ZclW94jz8SmBCLPr8aX7FXzFT1J3b2AGqWoqK73KtwFJFAfqmuiSFtQzVxK2gHDvbhnUOXE6AeJV6/cMvO/M3omsp3LilzxTn5xZ5OEusphRvuhDCPnMOQR5/fIox3hmFgt5eMtkgRFsyH+HpQbOK26uEeVxrO93CRdOjSFRbmXo+APF4rFDp670gUxsqgUUNXLM2Gmm8KhWznyP0a/s+BDial0th3WNpInW9NbJ4MjrIxkAUFff1fbl4vYQ5T4f2uWiSKJA6BukO/+qTGD3Abyi4xzGD5N20Rd+Ug58hlQorTMw2rnf2Yp388YwoWBoE+SFW1Qima5VvPi3IAQ5W78sCOWVR1vWdK1PAFHt+Nrc+lETj8+alXQMLxLR001I7X4DEHe3megwDnNidCCgzqXyk/KIqbnfK9U5ZOBAGm95NAC2daizizFuIZII2wp63HfHPdBrCbWxeazVIISyW9Om4BV7JuyRUc3SK6SERrVR7N0ostCglVLJP2PMrv/der7CHbdiSuQZst5dgDTh3jY2a8k5YLi3XH73iFIak8jjuWw1kro0YNUDOJhm6KmfkMrJc78jLSqiRoD+7rk+WukxUoM+04DSLdumhyoe5ojFcf5nsu8bhvfaNHEvp9d1LW4kDC5sr3oAtJSsEyMBheqyBroVTWz56IM1yrPeLpI7C3SY95mUgg61Gi15KxxSPPBRu6yAFnE5hucIumrEl1PJQCuOJE5jIZLh1R3T8snythfx9GMyn5nwutPoUDljbKlr49zeM5rB136/By/rtcUnR6k1dPbmiC8DlIdLHGzeS+4j9jfiIFeaTiOrC9WHf/IQxM6SHDBFmv5iOOW6nug0wEaGga15shywLh1sX5cl/Bc2tPR8CkQI+xE2wGMVkoSnVG2rCFUSkuOyQorfCVHUp12CY3AaoRMdZVn4pTjWkIbaAYDJN23ZZkLWGBo/8jMo9waytaN9mGwOqfdyfjLjl68ztr+2EYTLDSGpTTDkjxpkc+YrQ4MtTSTeOrcClnTANN8hQAytSv9BfIQtQFcBOpgDAyVP6kmcGSMn7E4U5fZpQcg8vGAXZUdPVkJJWkbRVF+PBA1JOAWl06f76iWBtjD3CNutQhCjwISCjUKdeNjoc5PcZRyf1D/2qG64K7novGF3XrACW9dkCKyNn5jcsDzvfvf8gile1ppypgBTizpPzUc3QwjeuAaz97T0ofSC3BGUhR/8mHyJM5yls1ZDPLRg+wMty6j2T7XhP12wyGNI86fEFMQR9tBrRwjzWh+3LZmzog7IGdwcAhRuTfKUmzQAMaPHT7nKrHtCGtpLrw7KzWNT/8H1GySqDVQFpHkf0UWE1IsL8F4k8jp4wFxRN85jDHDKu1+HkMJoQhSOq7mG9P1mX+bsP+PToNEOQXH4RzOH+jHZd9ZDQsOksDVNrWPTxblGRslY1o6rnNsJiA/hPM0dulPC317cjMAWnCPUP+WHRiZieTsc9bAD4+Yqdm76SK80soMcaKFQ4yuG7AXY8ZnZSA31JyHUVFTRsboWf7nU4exrdE09lIzaBbdqwXCmMLMjvsoXWa5peFVizc/OA/iUuVyljzTSIsaB64ppOkqI1MtZGO6/MFf9kxxIMVKirJEZK2nji9WeYNUWrdzP2qb/Kile0vJ86aSAvIfSsap43imjR4eV8QmIflsvZvs3c8JpiIpfrdN68KdYGOqIevJvE+wPYDBYcnEMViQdmLviOI86vzUgCEi2IS8AztRT6I9JTbWlWGYBVCmXKto8ZGl+yE8gMdA+shMer/UNd8TJXYSmIw9U0uwezj63rMIsFQ0WDr+OsE/ZUAdEMP6vtIxgayJ+9HRrGIqz50KAXeiGaZX79FjPaXq48nCCHmIljyENqQ6iqVjvezwRvpSmKut6wYE7+p3bdkCwD2bn4Ur3e/Mx1FOOnKMFCwlnxk2lgM16jT23M0K+9k8KA7PI2RMiwRbfEjwOqSTgNhIGASlX+evvAyOq9yA4DM5y0d5fxVof2a575LY2OSXyxih3xl9IjF6lsdj0FAg+jhA50WL1CQT5jPhN3mZDbIArwt0XPkSpe4jjki5T7Jk9ywIrKlNNUm4jhwYzyiB6TyCQUvm6ncx0tWh9jDbt/ABapEedVq8uICzOjPx6a+WaxVcVzhqDvOMTjEC29LElNbvxQf5Tqs16rdGVYUPDF2V8my614vFJ3XrTj6yLxUuf8FNYNPlFXvty0fmbmgGRAAgnq5xPAilH+CEKg5kgg6eqzHTXT2kckTJEr5lHS0/oGWesZGkLv1OKJM3gh6etCkV/34ii6St/vx0ymdRilp9gesmtQFrUFeL7iJuqWTJ9BmsqZjLJYYfyqZ8ToMZ1+wS0JCaqnLIn5/aLmPsBwWgXtL8FBpeJjldR7PnZomUcozJxH6OZm4qVDFNaz3Eup6BBm+mRQYudgIgsep72IvXOcqO4YVg7oPkP0HhOW9KT3QqIIaj+vqYdM7H1eLMz+/v7Za6EGA3fyaJKevQdM5E+oN887dRw/cqN9i+qy1nsJUQUB+LrxL2Qrw2dFWTVBBlV75xuadEFjDJMHbeJgTKjNJUaV07mTHfcNwfBevmbyfMp09MaxIBTrnJUsfcSLWkxjLKU6ulP9sAn2OarfHsdxa1I8pBV9vl2hj+XEwDIzGAbZ5YEo6mITv79NdXEXSNQ4x9j7hGKLle9XGvkRuXab+fYuNvaRudwWQfdcsHqDqcffPpoZwCUO662t4s6NVPeuMNaDmU2bTOgqigl1ufIs8dnwNpAbrNRjscQ2Gpf+ADl592LzwWpUPaY6xB7RkzYOMuGBnot6CjVjqmlgiz0GsM0PGIG6FAqbidUmi+tQL2Qs+hyguuY4IBazcAcgXEN3Vn2k/Qv1fZ4V7nOp/KdHHg+x8pc3mOqtF3sItDFl13pLFhtQGklbe4BelUULE3fpJI5erAOSo5iahPZXFk6mSpWqEdwP0sobJ6iv5wWS54vMmNd2caEMqBjsezybcgd2eSDcPrGMFRvM1uHBO0HUL4hpZe8dI5bO4ifVkubZxn7eplvezlhyiXcizpj+PWEietK1cKKA0a51TMxIU3XGgOLP2QV3Co/JbEBIA46mSvx1Y+s4PhhrZGSplhWpBOSfWmfEyc07assthRQGczuuO7FSAxi7CpTq0uRlUGZ+ViKjStrDXX1rVyyoWdX5K7An3eYyjBPB3Q1IsLPUpMtFoljsA9IgGXYbm4ImIYAV+1lUFeRI3VXIEbwcS+OgqQde1x/0QGw3vA77GzVW0jZ/2xU25NgLwMRylxhtUCmI1VlUBbPx9vSa3l9pOCc7+BgbRi2D6RCHl6c2SOteLnOmNxXbGL+7S5OemmmyAj0g/6BiakijO0jNGg0JfcW4fglT+ly2m53R0lAAuuH1UDCruqgyulE7YOUjhlu0GnWPAeTiSVq+WiwI6eWiObO35Vu2+5tP6Wb95yxEwPNC5nUUc9HrBtsRUdENIsAnHYXp7+KtMx36couIdE+E6wTM87Ncfz+hhlOOjtky5OKFCLRAwapBdKzT+FHR3+bFOOIoxqG04whZOi0TXfpUE4dMB1XJ0/d1S6XZfjuf+OaoqjnpX8opqApi/LDqMViUmYkOrhFLdx3OFGYMiSlskGswVYdS0VQXDfJFQKsYAlbf/Zbkb90r8QGoRzbUehUjgJqBpIUE6RiXFPvJva7YF14E/RWdi6p1bAks106557RhOZYXTfK4mwaIhcfRwvl2FPYV84v+2epR700DUXIoPoj91FYD8lTqlOmm8vjYd94kDuVAQzyZeyapSPB0nnPVJ5DZ4/yCcbW6YK4z3zMj/qedKWLwWkAnp37IYTVGmjEsIjCNM1ii7yIo6KaX288v97Fo5ovVFylS9zj6ppgZaq/Gi4IUCppZTOGe7vONi409LoCSDiNzT/27faTNcrEX0AdICyuYLxfdyXfP2zPNgLx36DG+Cd2AIw9r7iJWyOA40ygPv2FQV4ymGQv2uQAVEd5TV03u05V9Fh5A5mo6+iL4STY3TuANHF3zPU+gb/d0Yq5AVniq/E+xA/W6m+SoFX/cax73OSaxWLz/fVbXoffM+3HOdXmjk5b+G++qTMMGRZU3qwYBoieC4x0jHsg99Nn72x5DT2TKgBzZ14tlevcJ1LC9z2Wkvs3mOXXYwxtuvGEmfKDXKOgsOEpyc7f7c8oW6qW1DosmQsJ10ST2CJbgWPHUYo3Tpxeyfx73gUM1AqsD7j170FM5bSlo7NZpsbBt2zBOJ2IV51MhAJ3PFIlUfGlC59J97LvNozIigcwUWEcluPQNLoheWsw8vGOiaXURZdb4jMhP1yS3fHGorq2c9fI95ORaFF8Z3jVdQGnX4ZcPvf2zzfxc4IEK6DzHPsA6bR96ACKt6YMLRkaV9h6BChdDVPXIvUqE2prPjcTllNDmLng5yx3m7zyLrSgoyKF5LJYwd4aCtv555V31r0t3fSHBg/ZowovPocGNuvUT9skfV+45nSYMz+Xof9thFkXUS5PcS1wSj2pu+xMz3L0gYKVsYh+dGNEHXFZFA9C5KsPJfD5hthwvk3gsVAtrYp/OHA7ZufICUdz8uX6rBpufJH3CtZ9Y0iIkuJVKVeFlwppSAebPIwP9uLV35a/v2Cr00HSjnO2tq2Rw5i5C2bwesIDTfSikcYBWg+VE4Mmr+a4RHI4F+t0D+14j9vymKkmqzZCyqa2BMa6QSLvf5Qs5fanoEY1ujv3mU5D6P5Ci3lbNBETilx+E/6VJNi7HGYX6pJaXAbkN1/tV50g2NbTeWBCNPgCGy64GoFbBTnl2YYBnPUZyDXtwJsgidIY4LwMVgsv3+lf1KwCbs2642cSGducr/QNAL8YqrUPp+HE0O8wbIM8UKoE42yBeQxVGxk6uzLWIx9FWUGlL5usEguQXvW8OjZMdeDxAf4cLAKT3UHQkKuRgKfCBt2h7VO3vX3SdRyBk1XwIl7WYkAfa8b0qaC9zae+P0smswJqRl8Wjvl2owix8B1R36Okomg3FOyNIwPSYUIKSGIN6oNPg5iN9rRCIJqlhLz6dOoAugdbg5KgqXdMjB6GUuo5VUtzKzBP9ikGHiex25OlrYAtgNN7LynwItjaOL4lStdBoybcfEQEkHGTznelgz/Ggfu8e97bdEqvw1QeR28hetubtVTFqk8I6e9cNY342p3/mViDmFMXn+Q7QCxYuOw4O9UtK98ZwTYOxqfSFnOXS0MzsZ8D1Va005B/mdpH4+Xcuuium1qCjGoBzrEDYdjn/6p3pXS6ZIXsgftTL8cW9wAVfWOMmMxpr6LCxlB7zENK/djhaW18lcBIFgM02x8V3VWj7+725AWoeIDQY1p7MCbBhPKTxgnIZINWEL2BhJo/SEOOifZZ78QHy3uZ6MGptZ6z+veUMMZcivCt3KLmo9VQZIrhbMIEmjR9x/GRT/ASik7kNtMNWRRXCZpl3kJH9Ak+PmgqGg61egCSQJOkGINv0OE1TSdphH/EDmLEB3hqh9oxKbxhfG75sqJ/OtRyATMo/oIRdfY1QRfkQNFM3RuSRhzxSDofiXHOog17OriI8m+OA/CnGctQGcyX/PCads9WNrewVq6308Lwsqt7fx7gF9OdXQcLN5VvjqBdz3BvwAYysMDyAaKlOr/hBW3z7/ih/vkZquFl6vIf10OYWMWLqA7AaC/AiwMZtcn/GYjE2Tu7YDy8rKksBzjbE8NQrIaE19CIJelFdrs+ni/XQHyyyruyRId4FsTkL4Pfl6w7YXp+P7nCyZgaIfdbh306z+B2U9J17yGJNHlgnkmmwm8SepqoYqzqen88zwXOK2RAwfhbpxIvaTfQt66oSAIRRUlJYq9QeXrCYgJ/m4iAAr1MfiRP8CCs1l1lwowG6DGV9a81ftPDn/PkgIY58fYiteaywWyd0x4AlQ7WfR/JZiornuJ214a5/1w4l3/p4S0d7nubvpBMPAQE8VYpo4IEfPAtzAlZXuDZam1O0OgEBbYGp4f6GLpDxOBye/nnefd8MHmxs2M6oPTw0dQK5PvG/GRplZZ8yT4Q24d6OhvUYgvKgqfM5UquAbDhCPTbgyEYz1Mm4wjCxyuJGgI+ptwpgVfs8GOoAAuq9acyLfkwAUxlDW0cxhDKOGUZcbQ4nZY0N0OVhoGZbtpYCyFTxMaDJ22uufXLA3eN7FQAJ7MTh8EdUH5K+8HKRve70uzI90PnsDWIfbtWvYk2E4vfHDrT4GZtGBrA9AercnKPK2LpBHE4WAP+zLo/0HaeH+qqBvwzKdxulDnfetV3g+CPfNFqUi2bAtgyPgMUEQ2avPFAoVXZsUtOm7dy/VyohWnzxw1XyA5YREl9zXJv1OsbASk54DqcXTKoAWBLckybp+Vdw9YY/VqG/2fc43yqD/Btj2n8jawZ3rFDg8Swre09AvCoPuIpitOU5dzHBALkuby+46XekURl3lmNPvLt3S47mjf1mnRx45h2A3LHQq5oCx04hBBIN+mA8veY1qgHBGehIA4Itz5hsvQmfUE3QV9r/U5orBQZgLtNCcJBo17+RR5fBCrD/291z9z8eQRwZz/jG4NtUMarxqhxtSJwvDeiDIlse7Y4mfx6Vo8OTwRXmydBAKH31HQmhFgAedbfB+17JUUTrj9oeTtIhx0Q2sCbboW2SznP255XPZK3a0eF5suMthbILJYJzBf5yvONfAbvOUo8PsCEFVILUJi64hr8dEC22DREZQbJsvb080xsD3TZF6gL/iqmEXEOC+FVI4Ebk+7ZFyLoR1CFeH+3nMy1Wk1lsnJIG93N8QBuPIbjvr2u+NLa4eltgxoGfAdoGjQXWhYo/8DCG7eWhk6wQDfL1gv7h+6lmTvg7av/aOGCl+eFu8HQGThtezo3KhXmmnlYsqrJT8U3oPQHuSPAyQDZfJtxTfZVG+HZor4W1OQ6O2fW6/FZoQ4Ns5DIYVM+HexhONy3v6NtHOsdtjq/siT3gtdQCvJ1e1rSCRGF/zlknXLyonKOreKF+hokE66os6FPgr9zt47SAVZjHEGV+2Zqv2tve1Yd5/fGhpkUfj2grcDZIHz50l+Vb1LyfQTSGKmhwg1AKw7qd15jd3z+Fp08LPmeRPxq5/w+np9LPIQO0+jp+/hpEoD1bkOXncxWx3AQUFrpL1CP8H3I5e8oCeYHBBVDhI5XSZhHJT8J8vTPzHLDKvLe3G6Vd3ZllZ7oQiSijDVB26UUW37iv26seaA7SiL+2iNCwY7Z+/TsrczWXU6sDImN6unaf0hJUkEFqTgxVvyHH75ATkt86pRVwnwrMxFX39p3tsz8cmFpTraGKzU1tB4NM+O71CjiauTQ1C3kg9obbsZXz9rgrnZUnyDV55ZV3GSQFpE+MKSmAr8JthKe/MNVPnT0+V4h9TX0a+JsF+Vr1bZ8dfvsEkiqkbbC/Adn4mwT9WYCSg1tCNF2k7cTSC4jSchv9EygFLvdqg7k002ZLgBbeijIbe/MaSC0VwD3IXF5AQ/apr9GQE1PIAA1KAZ6mmHCfXJo67hu5Wf75lPrHPi5opPwWTg4i9jZvftZ5bsJazAWrjHsUeFmmXQICA3qWB1tXoEa6oXBsnhboOyQERn3JqMHgS0eKmaEAgYGVQ4LFWAvG0ND6hUqm/U1NY2AMpAcJHmZRj+l9BS8ho2Jh8lPb8/RIw5CYNZgA4fdKmtzvfPZ0lrt8//5PFQUylqLAVkNLRZ3k4QEK3KG/D+DPEeB7628XMfi+zTHBpJcC9xdIkMChQOSqffmrNQgLtTcZsKqc0WiJ53LVCXI1UIucNQKISFXro4KH+M9QYrwA3AVs78ixouAq+XZUfb2gTvnD8WXPbTWDq+Zl9TjSc3IeJABxTWY8WhG8Z/KqtdRY7Khs6z9O/U7/GLeF7SDUtYU2Gn+LnsZTk4wWnQOlBHEFRm3eOFNwTxHWh1RtHeKyb00GZshwuxembFm//RqQVponaEUUUvmW2hcHVfB+OhUukuMKgWtE7q/vizbR7vyXNekI+or6X9WQ3zrnrhKrcihuRDevIZsuHCw3Yt2FELwBZDfw2sxB1UWVpkds4p7+hRsYM+JpJwP4tvS9cj+36eKRjt/A69zh4BwyIIlhSPIj8nauHx6+nYlfgDaOp3Ph79mRvK9ctmnQoNPRaA6/a3g9037cM33YaJXuAG9rB6vInnSiwfMc0UCxl4isfZUmI+CEg4gdPpp1sSnPQcbWnnvr5gPwO0ABWjAIx/vmDHO9QeS5dpPS3Q2PORqiHADG8K0+ywoYvvdM0zLYjbdcYoWnxpA1EMGDAIE8+h8dkOfEy3k+ToCiOBdmgifGeuSiGIK+gELwpdmxnT1ntSclIRhR8NhDSy6OfrRxIjQlJknlCXWAt88X0D9XB1ixLMhpv9foA9n+qmhdsFIqmYM5foGO5Gs2PWJnBWzpFe0+U/aOm7eu2gNUc33dpI0BX1WZ+YuJSvK5jQ14DeYnoMSc+d9c1vlU1Jd8Ngsun21iOnCqs9RhQxZ3RVNdIB7s0VY0F+LWHbPnZXb5w7EmztyrRw3tLfb+5lvjG83b/K7RHP/thAOSw5uUhAKuQJCCClOZCE9h8HnyO1pJwNfxlXtE6CJ3rH5ev6yU5x2ZRgRLP8eooMyMWizQm79xrr3h/fIBlBUJ2qMLjhsGGSL9D0aRm7k7GAZYV6trD7O8JEZVNKDy8jp/EggqS0a53SkCsXpSmS76Kpt2o9RXmgdZLboUIMsVUlb4LI+YVV7IgQPRNYl/eyUfGtV7wMssRfgCi0za9PI+juqbTbNB4aqdnPrTVAmAj3kKiHvpBl/rNwdeC9PdF0gxSB6ulAQLnYHuTAbXpZ7Ccc73QBoHI4csajv+4TmlzbSeByL0cmE5NJ5qoHEdzdZWqzOP6a/yUQB1CD/MsyP9EkDEK02DGDWK6tT3GCLUSZZHaY9UepeKZ7jZqU5T16JUKfFmtTficVFVfnZWAu59/nQsWQcIzwsR4Kzq8uAerZfwa/jtnbbpAnC1EgdKWL63i/PCO9iS5EkkVrslDVJLkG3624N/214JOZOC1Vws58qL2DSrHEPk+fmGltEiiKl7Ez/Y72MumbT9o8QhevNvx2hqNX/Xw0d9OIYGCDwBc7k43AeDAdRjGPqDOBdVPofOo/605p1YGjnINNeRR528IIJ0MzFvV2IFg2Lo/UUswjKWyDDwwKWGN5tgDkBkp6kvi2SimnoEX8dOn/4ebR49/mI+mww2+50hEgDi/vvErYMfMGFIsSt43COjgEdN5qlHK6q9bpaobK0Ro1PR8aao6ycnA0UkZpJ5Iq/nr/pl6nT8Q31bgAWqx1aphShPw1LMYzKtUDVfPue+dVNez78aBO5rkuzIv7skPgF5DL8DSDnB5+Tba+Pyd+jiqQFdqa1PvfOX7Cy+T6sxDvbyPVE4vnliLI/Im/UFUWnIjkXsfj+XuLzr0R0bL9+HaA8yU7ZI7/fAhG5hcmp+uUu/VS4wNrzqD5CkVMf2QQjXrcBxvdb5j4/rJk/znwqOPTfBVfADGCxc20FZ/dLUsROsp2PlXb5Qxrmu6mINNnw262yLXvO7D3CrHLm9QKR6oEHxF0ssPeBxuApw2Fg1/IYayrReGjyw0H0HeNheYhjk0yE0sdaKiP6Thetw4gx4rrJtDpCP6n+UDKwrwx0CJO4Gwbfb8NmL73KJTEU9IV2Fz0sY3B5ff0i7ovkXbW/RJz6lqpul43sc3P3AFJPlflrQCSSWAh6Z+d8UZjmLfOsYDHRtUqEap5Ywedcyv11xvbqn9R8ucDbH+wiSaw652pgrUkBqzOG/6TrDI4ihmX5eLAN3ncLJYr4nd/SnrCAPUxE6nyAxF+7/P6/I+++aQ/SY5bTiWQB7yFFmFcet8ITtc8yR6kundnP5yaqZxnaKNcpTwpmknTwBZhmbvwrpIQNJDjl+c25Spu7h0L2++W+FSfJEgHKFmmT367pWrFMEubNX+NEXCqob+saaOmx2KZA/HbttKS78LKJMttG+Kq24Oh8to4Ad5SF/6ysD7Xf+j70OHnDRHZGMDvk9gPU0FzkiRf6vQsQRbYF7tMB2GIg9exS3i6KRHtYbKFMrGgNyNRB0OmuJd/jRzJpfQMZPLqCCtcd4zBotDxFgwsUXBbo5g7WkKdvPjGVbADDQxyk6D/Um+iHp+u2/lL6cFWhJM01r9L+9K6hrSif3drcu/+/dg7AHnvE4mGV4qNjySNXr8gLze2g+QhYko6aNKNMDgsP6Dr0eK8907HfIcrUFHAmKbqEY4/BI4tKiPk+DsYK1ioKe99O3xtjXPpLMM/+rQcGNv6ngGgIij3Qz5X6sOYwlnuLWbWYeIB8I2mTAQ8rbC2JoAe4SfyfqSQesJpa/2T/t1O3cwaDawsVmWx5kwTifEb0rSlA9gIQTiPRMQNpBja/G2sp43yyFUaUA6EE6Gmkv17LQjku8/PleLUCcT5VfVWGhqC8uphbP0apuvCpEVtCgqYF1kmS/qE4W/PLW16o/G5dSSAWojP88veDg0mjniPI4eGc7S3NT1j3pABrBEqyJMFue6q9s2p43UPup+TFMjxDg07dQu02utuR7rq00I6Ktz6UvKs0Y7LG6s7bqlvIdIqsIXnz64Tp55xRE2Xi9rpA4zeLkOj32yvr7YRu0D4WmDaDjFSuwVmDbdnbH3NSB3BhQQ+v/f9UJXvAom4lu5kWzHJHYvG/DlK3guaFIxlfMwJUMXlYobVFbNmCa1CB4AjJWRZvavrRh+P53vYAgOQQWR1Dq32vSjEeex8/SWjXg+YY4Wv2zxrtI8Cvgy9XHOH48ZSLztnTzCU+w5INCgShyO2B2xFr9ODigr2gEuDnUOsLrYGZ1UQb4TPEkfi69rHCgU+OZgMiOHg5fR+7HsRltAgafxL8K3aVbTeQkIGNNG158izTv5vOvfnDxoa9uiXOrJnwUWmNa7O0OMqPKBqOhNQ00NLjf9r+JxD3fZ7/5/IqjA9y+U/G1FSJ2de03+wQYTd0U5uwT6+6fLd/fgQOUzwZaU9fAyw2A8Be5ytvAU6pUGAPGCtjSHE0pexTHIPQSA46QAo5wZbTWSEW2XJozqSP+1ExrozhYS5DNTtiArmWIaKlBVpKFnGNa9S8uhgWGlvL1EnstmSYxAstYrzz+aBHd/Oap7fEwONmxFPVRs9q69qZD/vcuRFF7lNmk9vIcfCAeXez9790HYwDYdY9XlAKtC3MW8IQBPSj2C+x/BxZ6Pv8y/u1+mg5LQRSuqI2iBlLFvij99uzufH1I8lIA3g+d7Biw4jFgUWXMsJaJMPpITWwnfxGwIvzUITelZeTf2VrAGXy+9n9ZPhiwlEAEiLOwGLKnvAM0acqZC1G6mfcBjBmeruU2YCwP/IRnfQEo3lTyyY0fS4xOxCwBbbLfzeHT4ViSMayLXBrLfJPEEwcfKmx45mUZmY97sSfQJpZX3mHnO5YonI8yEbbH3CBg5VlyS5fbIXCT0NLnovZdNHqIPDBasRWIUIWivgBeRxH97/kh5FedkoT/qvzX1kwjD6nIF3xGqTH4Rro2tCdgiFsS7HOX//JqOXCbziTH79kasHZUZCnqiDR9xPmkqMdrBKzbgljv1YuKT1ZH/1FM/kK/KA2DT6BxwXUIngL4DqCsyPe6nEMzB4CDdeG3BnQS32+azPPhn104Zuq1SaU4HI0WY/H6+LrytYrNhi+DIH1fVgBIAMIoJmSUA0uLoktdyldW30iT3EicoA7McHhynnDGlBbaj9AYBzdDFwFQblzXTCHGEBYAIMjrhwI8ctDGmYYckKbUZ0Kl8d9GabcCdSro6zmJqOJrRQ6UchM411yLGNqm/zzXyRBC+GOgoziNbZrN56QtPPBkfUtXQN020TAHR/EBu8oAiWAJx9TxHZK9F1CpQB8m7vtv53dZv/Pcgux73/cDIAXGw50E6fEJZkC7Kyhkmp81rzYAigIIJ9TQmIa+XvAR6g6Xl5Gd3+uYrxh8yFVScXTsg2FIvYJMVWwW4Xaz0UjAF13h9zTYRwWp4jlSQHxzsaqtRG+738+dw1PFzj5b7eBlRr/0ADcNV05ZfRqwAXMyVTmd095M/+MAIr+hHfcBUonPiZe3XXMTAoI7jmPTeumv7vsGMbyOUhtesFogcXHaUY4sCo8rSKSVbxqsm3gGp5qdswV4oK1gcLhASsrBvczRaBlpG+MOK+BNx7MvsapBuf/shO5qtFOXB4ljitMTVBfry0/Zc0xF3FjuAz7+yYo9Ak/AFKLycPiZA5fs2yb7rwhSW0YE/g7+61+YwE7NQLkfpQrUj87m6KjiCEBeLG6A3IdnYQJyy08SFV9/3u6tj1suVzZxbNS+0mwbIB3t/rL48a0xk7kxmPVYELl/e2t6/Jk6IYDPeji28Ve9h94gjHiJem/75b9ez4DM4GkReForvVHFaBDHXlnZCu35dYkowGAQGOKyPeNtvtnHloXa67usl+8c468ib3Nyo6oK1ixHmPQcxM2jw0JqCyJY9tq+PykGV07BBscCyFnn2mXcifBMzZ3SNn0hbVKDbmubWtpc96vShnXZHO+nn0akSgkcnmirKI+npgd3c2a/vG9du9g70Z8tEYoPuoBbt+/ebSmHF4XbyxJ1+4xVP4zEDcTUuM1r5RcQZmGVBDF2eGgKaOP7P1q/BMrPliPrAQ85ZUcCLCrAcmSwaQMCwMKFtTCqmsiVmU0jf/EimMM3BdoSU4F5n0zydOwXqwAMe8jRXsR/qsag4BkR563EK96pv7BnY8AT4HMF8PoU5Hkq/RD8P7X4T0dww/zQxbUTBvhcw2cQIm6BUc1oa4O9Pf8P5+j4eai/h17oU/4x2Dx/BTADRRx8WtWkNXMWPxBL1Rj55xkf1HjEg8cUnYD8RfoB2GfbsoyEp1b8OOh1CcvxYzp1CvJ9fknDim+H2tQsK2FMAw8ugFkgTQHxfW3gQyqXzGw70ODQ6/4Qk5VB5jLvUilsDk+DvL4rS/9u7/wVsSQwKuDezzjGjaoQ4F+dIX+VkY8qBO/Qgn9TSRq/N8x0BorU5NnJ3QsW55Gz86uUBtmN3eAxuvkeiKxdLhbl4I66bNPb94PXD1zmFN8s2l269anpoOdlN5B/N1uJgoNr25FsM1YYStAUONOBnq2Le8M/dsOxzFvgbg2ezzBgZQurNvfXITA8LEmRyf53zseZoRdJOPlEex5y088TVtye6EhvF1gG6IPHzZ0VLPwwnf4X+Y2PDY9HWrh4R8Fwh9kkbO5DrdC/PyaECFG8EkgKT6PG0uN3+j/fnvSa4wNC/la9rQdnTUToOT166dHqlBjgV1ixo7k7LFiOTTSzbc7v2JC7fzd3gX9K8PN7Flb6tC8gr5i1f+uaBvdIJKH3xzWn6yggEZBJ1BhtxFd57pjLakyiwn4k5nyClQgeYXJxaccFmGt/ufnO0Mfj7VJynaf422t/VTBwTcuU2TQmaPKET3sj6P3bhxXeUw8uCloDE65kiGxjqX+kvvxwOQYPm+Zb2mbRBT4YYaUVMATZ4v0SUn8IxNawyPA599sJdoZyy34q37oARMcQ26hH9WH3JeBfkfn/NPZey44qW7vg0/z3eHOJN8ILCcEdRiCBQIDwT985mLV39+k4HacrVqwqzYkkyBzm+4ZL+mK3+TslUncaSk1AvIgbvnF5lOxHcEZk7rmvrZWT1qtg95S+fKfh08uivYeq57Kif+0Ugi++u4FWywlBk9hdDv7eecEbYkCuhhTeKhG4tEqxsyWxJEQPdeZQS/DxN1/kEDG2iQSLEdOE95n3JqqeyIojQiwshxZJN1gV80JoQdef1ThKC0I+3t4rIJr3uwzvI1tDcgzJQm/2UBv6rFrC2Z5Hf3b/Dm1fxE73lU+Z7MDMnKFT8Xtwrbp6RXviKEJmY6kfJbgPNd6zeMkk7WQSNmTQ8B581nVXalJ91QCQnMTskegCWqIR3v2Zn4lKFooi3DAzqvDMREOVAptADRlMWjB51x1diAwRdtPsx80wnAEhEghDoaew7dU2dLzq2yCbTYm1oU5NdQ0p65RgWscan/TAzhK7DS39XtYLNy908V8e9l3f0bJN5q9z6nt3+nVqIAxPPJCEQC/C5iBXsH0vySeCmTC7nT8hSrr/KLvpOmoLDcA/8TM17DNzMUrI49CcexAXUfxB/7KyZ9efaeTIk4/b32d10VfR5J/MNywLWSrXWzCMGLlDP9jD0FPIwFx+CjHNx+Zunb6PSgQ7B3XMYLfryBMhs0CMyQT2CfxT4nILEy3XwCBkUy687K1DjjqGVb+HaeKxrqWwEC7dMkxxIRo+RWz5kWmNX5jrkhM5Pn4Humwr+nwSVnSGrXTbyof1bdsz7lkGaK/RtvZ1w7rknCHzA9bgwnchcnjVnv33Oy84dftLXPbX/9SENdmra5GKwCfNS+5dC4TeIM2ryXevBpWdP5gE+SLtBpER9ml5WnUzdLrqkAciDNrsv5dP0/51plJQ8EaXWF3QXBt0TmD+ylv7V1X5AJFFLBQw9qsh2uyBsGSVpsh5a2IVEJZ6nSLF+fv+b2Sp4tmgrz9/A+QmhH0tY7QO551fxOrhYORvPxUGnr4li3mMzDHFp/StNuxBEU6d9NqR/FIlkuTweo+tH5mwzskhQHHndkvJuZG1AWqMWihVCRGfMAe5wpxrHD0WSJwcP1a1CNZBlhOxq1RaxGkwrHSDEJ1I6nh95X9xYv0n6zHEvJYWkv3GNjtTYb1L66Nw6+dJcm+k9XqNQ/BUaS5/1QDy7wndfDABIH8CVg0P/mYkjRY1c4unr8Dgxvy35J3xQz/qzXeRNkDzaCTXHz09zLaKgYo27SPdIXLXKAyE0tJaO2CU4iVNdLQLUHeuyKx/Cy9ItRrMtrGvtmMNxq0O9Nsifj3FNWL4howsUoNhOrYfz+OKM5/QhJ7AC4ZIit+d+4csKmKVBMi+3bftNjwUYc1dXvq8ibu9rs/E+cPggAVZ6l7h9VjVmLDXkZ8yMuLVXdaDNWqbebUeH9qMfk+IIYRprJZPCKOqYtN+2s9BLxnBIU4hTaIzD+XkgIPfTqqEeMcR3ZpfVaTXIQFyVj4ejyAKPPS8XwfdL5e92GEXJZGLzaSJvAECeP+un4jMUi20XjnjRNWA/dMweeqKtJwC5Mt4rMPwBDdN2IuhDW6Jho9XcsL4KCwTiAlDLvMcExPGsLZZaE20E8OED8Hr2+g7TU37Rmvq6RtXJN7PjRCtRtsuhbEzJk12CylfL81JfF/TVOoTtf+/J8rg14cX3sLMvRtnbaQzff88Y5glu4kYoYr8zNREbfIeyp8Ttr42mQWkpTDcGkyzmulbiiCfQ1+CZfTe0gdySAgTPa7I302R4bdnXUb0tWPxJcZT9PW/xdt8IOZFUO3HkPOqIXSK7whWfn67tUrSMC3stGnWM3pD63ttTg7WEhJbtHWS0kcuBp+bm/oqzA5C60YAbsKY/9ialsWzc0SURZJkP/f5P1szPstlgTKe2xd9Y+Jp3xCr7lcpi2gL8XZgG3ObpT+CNBuZCBoAbBctxNo2utWMt+C3GqLjU3/D6sfflynDat2z+tvdzwgvQsvPxLYrEizeiOuV5Ty6PdGeBeIDjJQl/3A1vFUY1iCjyAbJ1tf3VLe4MmpRGg8If2xhDI48qZAG/bAFIkhedwDbnV7mbwXZDGLFo3w1ml9eY/serHFDcOxngvkZP0HhrgilvRQuWZ3hwhnq+yFz+VU2nN6uiSFdlDRbZXFlb/e6TfoZuRw2ZMD7wPuCK/k7XoPFGQpk7xUL7aWvekiC7C7sw8CvTedA+zcKnztEZO+GNW2jWp2riFd8+8hOUgZZi6n5F4MHAb4+k+B7cURxaUakNUlf7Jf9kb/D2wNmDoZT1WAUUskp/UZsPoPFiA0L0hVffPK9yt4YnmaQaCrMqBkysgsNkZnks3xijFMdNqkcOWnmima3V6egdr4ll7SubzEV22/yERaGsCcCQiJED/WmUBVWATftakhZTP4IyEh8Imac2NoQiu3//OsLdTcvuR2k6PSKonEI/mjQ1WCmtQeVKD7UT3rLcuz/KkD+awkZP3x7eBd3PyTXCKkZ42s+zCsAuuYaDVwNFbWjdT2npGZdx/wOyJ95RMbTYB7FEK0/DCMjgzJGkihCpdIA0U2sKpCzS176cAR/E2kyqBBypsOFlr2QFxBTm8SmeiPMSLe4Nmvy+s5C+U0u73mFS2q4R8f8VC5TawRxTvxSYPrSOecG+cL3WqX3s5U4v+3OxLsCp7UA7I6yggE8LZT/OBfzlDlTrYQDapEHrvNTJTwWc7L0D/IMYiIbU6350BOKbKzoIo0XLUZCn9ZUbZK0SAnQh0pI2g1kBUEKv4jtO1kaC/alK5D+px3xz3aNj/GDmz1UukO9kU7cvaFpz+lJrvTCd9lOb9Quwx5mP/QUa71GaZEyJhEGb/vMbbREpMHOdsJTDS9001p1r/KQLYD6Vhz7EE5AuStmdLtlTjJzNCHhX5kMN8yPVn0xRSOqcU0zYzEeK3d7Ageui08i8DC5Bq26tCHmm9vONXTOgJlNUHv43FW/TIVEHBCPtZEG1fP4aCGI479LKquipfTx8zMa9YUk8xVHCtoDMZOyzHiG+CYYoefaLaYwqmPj+6XflQPygJDF7IKu9VPPqK/97dcN6DlmeiK3PlY0rOrQakdoyWGNoFLemUqHd6dE+CKai0jAEH3QwiLcrrbzS7rlyQoyjt7l9yKy/7HVmA3yqFCj/LiWMdsRryBCuu8F9Bsq+bBgH19i9S7Z8cWy33Xaw6sfMmnPJY7+N1sPbV4Q24DzPq8b1MxksepU+zrCvCG3n25WQJxxOuTlkTyA9Ak9fjGIcN6R1Hhur1BKjQAIg7bVyV7Z5YzKoe/IIww0ECEKyIYV7ZeDWt01zlbt+k6mwbfgbtCVE9TKOe/bH+uxC1bn1D2MfWVkjjfOXAKx87031mKrxSjYDkguFL3EagNP5w0yf5pKgPR6gTp9vyHAw6g6dO0oEWvov9ogx1ZNu/14ZMmPiBajG5kG+qqdMpWbVkC2IECo2Sblr76myBJOrYcsle9NZmJfcIZ7igPC8JYTd3NCH74VlD3iAhqBET/DQu9B4OOvO87UuL8KHVx+F0hWAj9ENlX9BWZRD6+rjbSoqLjdE1+L1O8UUTP8YLj81dcK8WoPeD4/DGRb3iv0pm0BjN6in/WKmBFCLaX7/WAYu0D3AvdrsQcD0GNlN6P/RP0N5iV9lWsm/+UTUg9boAPDl1nx/rbw+2LNr7rS1qFw7Zl4zEr/Vm5F6yvIGngjztDOKWdLGlNntUZGbdApd2zM8GrRtxuQ+Rl1xKIR78P/rMr6awhrHbaCdK7XDD2VmKisvv1lFD/CqZF4BXiwMNYRdvHXKtt4rcG63W1ofz2IrZE5P2YcrRaRbcGc0CSTPanRbhqPTT3YVtV9N/BghVqy2U1lht7zR4kYyudeZwjp/Hl8gl0JhhT8F7QwGS64h3V8/5cffDtbHYGvvQQVfc/fKlFWHmhQryeaQPo0xlBZuMYVRPP3QbpegBdF+lRI4vitaLsqxazmlnTzaYXHVGPPSq89bsjufVW7amGuk7hApbkYYu8ySpxVoTK0Yi22nd7Ij/+s9+3Ps0RCtnO5+FTq1k/UDluzO/U5rZ2NzdL4MH5+5SAglMkkmUn3s+YLVhYxbwH56q+XqwR0H3XC43zst/L/6H+6/WUXwoRsoS4Paje2Zl8DBM79syK0aTYL4eJTmr5w5zjwDrRCf92xxPrfXgJLiIN/pcFIus0pb9H97nvmy2XT52mpDwOkDBiDnKpw/rDM9YaPr5RRR7KRb+xcfXZpDL+m8/UXnc+lQ4cQirQXEMBPps7mYHXWe3yTsvRfzb1o/WSCFeiz6lRZO2xLuVkcE4H9NMQbuUJKUCJcaQnF1GZJ5UG3UhZ79phO6T0NGsnEj79Vz1bBbTNb0yQF/MsBfYFIypWRls3J4GH3GnvA6vMubqkkI+sRq7+jEtBblyeZOH0EC6Sf9uQBVTOI68NvAQndEBAn6NdrFliJ59/4oDyK0zMNiTMMusJA/u6a3iSJhXBnpurHEEgCsgb3Crq5AHYifFQbkzcg8HDecQpbtIZZc/WikUOeyfA49ICS+1a5oNnbPvbZJBvT5rbK2HZzClKTz+jsCP0OonvqqExUby+wHpe7XfMX8yoQPqBTIEGPqSMcmKxmOoYo3ZBVOLu0LxItqgvD87fAeyNyRJoeQdxpNzHPHt12qUzDEmCdBD5wfg7FzCntveLGleTbGzQWHtCz0O5H5lk/LQgIecgVYm9NzxiB90Gsih78UPDMxBwfimn2gtjbPxeLAwqxFYihbyPClC+svR2jj5AxVHf+9UvbwmRO1cwCGnyL5VWEjMXIR8wGtMK7PsL7kmGwdIC7O+DBdHy9BEzwu1lEJQTIYWd8pRd8EzKI7Un8HNQvDLP37IlDLfiZSQHHeE967hI/sh675KA7alt/eOTOb3bg9YL105F2XJWQQ9ZTwmcDvRMQUuwip4PbyI8KnzIppGCsXqU4NueUjET5u8b6G47DFum0va4xdNk6EPolSjJY3thHWdnfkMp/eT5E6hzX1Q/e/a/V3W6nlRd/pdi9sFUgod326KQtvN1bX0J3JDvdMb0hosffhs/VBD4s4fmbKQvP0noX6gprQO9q3ECVJUJHmh9706OaScxDTAZ06T91jAlz1yP0pPcm+qRXn0661+PViOP1FmpLNKrN1yQvoij+TOcjrGuYEqynQK/dBYEw5M2kGv1+0fs6exN+WhlKmDlo2X6K9kLsn3lCifo7OXqwwlDWQ0O/EVFLbgJdm2ymW+6x/8sRS9n9zeXUHUncj6RZtNxeIgWLD2Ofhn9RLMCbhvVf/0O8DECUFv+oXmcH42aQi/X47CYLsuXry9UhWeTjYY26fseXfW8G5dhHc1L05y4yIKv+uJwz+8u2b6IT67vm8J9I7j6S8DuXEx8f8rs44/sfK3Nk/wbyDRVkOuK8j2ICfwJcsWN/r1KJgtD5sXB01T8vNZPlwvLznhifG15XQkk7UEN8m+7mz0EuEVldxC0AbqjfV2mmnLd/ZgdJ6K7ku5Ug31EJprN07APsH1LYv2jDvQvE0+AGoTzT9T/MiKQ6EoWWuP2rYCrqvXFzszvaMP1PFOpEGohlCgqgEkn+Nu3aB8TvXUqJmXyI37/ZJmIr2Q07O9qRt9BlRBjrt3S6J8wtAd4CDhV8L+mHGfQCI4P9OjtuemRZ9i6Z2aPImQqy5STLU0BisI8mZx4gZeB1l5h5XR1OvA3tdEWygdZYQACkTHiO+zbp2c36zkSx76HuIwnVhYBJo42yt8U9f7fXeL/l1bPy2s/BLVZKVeg9yRPuyUbazKE9h2hfmt0d6UQAifgVoOuXvWbxfYmyehH4dOAV5vIOdvGU0tazZhmu+8effggB1Ln+VFhMR6hKOouyFGRT5vaOcCXIc+372WBC5+M8eZxF1kSYDl/qZNdaBTUgXmEWL2jHthDq8p5hep8z2C2YcAq88EwL8vUVs8/WNuYZX1ojAJR+5VrsuTyGV+atwuftwSTai6VN1epnV6mMg+nXkQcVRoXrr11O2qx6+7QlLWq+BjaWJOM3QigCrMkPIevpd5zDu3jnouUUlc/Pu2RfkE1CpGRQRgQeJoku5l60BVwELZsGIksXBb8hgCUJZ215Uh5MmWlKRuVDjEuu81dHwp3VGcILG8sIjCHf5+GHoZ/kc93AtjWS1kkfjz1chTOJDCfj4odcI0IcIniB9RJibvhjn7RTCRjihW5KyE6Kc+5tYtg4J3x7Qvuj4FWXCLssBl/DOUy6iviV9s1SKnZ9XZLO0Nuqb7OkQfqGgAomKC26c1u8Yh1koFsYDCvOrzNjwqhlGT9+pyxbQrPF37u7/WLNeQVvJNOs+yQNHWyUAAbttxUqZ5JmtO/2iSht4cQShvthue+zW7VUHU9WNv9xfl+4KN9cF/er/CL2so90iMUASR1m/X74Pu1JxeFs0tlhATfX3/Kxue3jw/rslvBrBaEhfvsjLmv2B7MboJTIoSh14q83zoF8Z86IRN9PZ/80VDPejl8G+EHwsJbwYgZYxxAM+jmzJvF5Pry9Sj3fQ9qH2clIJyVBdJZSaY8tRZ4TySqNXgdS87XI/3f8p8IE6HyIDVdqQmhc2rM3O6fl9BEhpuDR5r94eTJx20uD62XkdYgj1WD+kZkjLlLPeqnOSi4Zj8kMbO3osUF67smx/TLtmFeI+UpPxyL367N8AhMAWYAIUHq5gSywt+8uAw6+xkBCs89x5mXSRa82NYhkZGzr7YvVq59qoSXcvb4jsvuJ1q5SEmozD+w90t2z9ifEdGPE7JUGfBwoxK5emQTilr0JmN1G3/7jKluXl+Nx/14CA3sySCb+ED9YCNvmRsnk7uQZ4zxlCfMGKP8IaYCXnbhuFNgARI+mGnlywrp759RMFireIeq6lW+WSPN8lImXXk/EqB7Jr428Hy8kITxiOmmfGlkzF85vsZqSuVpi4uQKQUKEDKtaws2Qv7ZeM91Sc9RqEIFVsBMFfLWnNeETlpqq5Jj66T/3N+LeZFpHdhZ9PpDP0JhPAE/LYR/szGFCVcjaJNGVSjU5WGZ/+cYXYPAGZ07LCtp+9txDLSwhSNc0ku/TkZl73qjPdgrhNI2rx2iLgCHfkaZXS+Zhll0UPxacXbGWObY77CLkigKMLapN4af343NHBLLekqG5qNKic1bRLWl2UyIexswcuVhCD+1QELG/JETPIwtaQY3nX7cCfg7mvKt8/aKj+7/59K6mXxqO427+tcQdt1B/y/qEiKTuNrKWXTrcwTt11q2ucPNE7L8Q3U3syreIqzfzt8tOU9BIKI4ZUXy22udJpz8ZqnoLM8t9Enj8pfLpv9HCvzr560Li+2+t/P7XIKu03JR8U26qEyITk2pv9uu4JoNgn8hzFFX+izC6gn+7LtVS8n3rsAKkImWJeq97msTpHc5veY7uLJtzgbcmwt+S/J9K5cE6ayxXk2Qi38J3/x+7LubuPj1Fpz6UR0IUXULwVg2lGUd8zg4aYxM8onWry83HZS+NFJYbXS7+Lz8vlw5rMP5VZeRfj6T49MOQuXoVJkZhJjrACzBDvCFP+XjZmqda9IjdJsTAtBZhti1/aPdzTlReS4l8JMjOEFmilt9CYwvwFMyMH3jMYgpYEbp3N0CrOOJRx4Oj9HNGn6Nc7L+I5cM0x+pTlGVxK5knQvmQyTJgQovF3BfOXz6//kljO4lQBUyxui3ZXCdOtiPOtSjKfiRv4+DJNEbWDcBwghUrYSCiTzxJe4U4ydDpubbnb+JRgMtw6UaXkKfvLhRMAlHJ7ApLvUaJhVlBf4O+aUSnv431ffw7dcB7eU/rM1st1WYtkTKf20tNf1LD6+0tHI+j2927/pufD/kntb7SE+HCPIIZaZEwbSrrICvj3lXzJQvjFeOdafggE/BzOp+yoHq1OKe7YQWnYnXudsUvqCeMXYZ9IRJJwTlV1Ig0KOqV/AYID7tSR4ebESrYfLdweOYKOqCNM20TUcvXu+Bc9GQjX+vqr8ZSW7j7Js5CuDTWmC64PzxdtRkla0WRJZMb9iCulzhRSDBzVFeWQ6nCPt50BY47JMPoy18QOrN+gc77yKZHUUeWrzWDEjRIP3sYC/XD61ew0/hsPpVebtozeafyXFqoGh7IlkNqR4bgxwb53wtc9eDytGvN+UY4Dhl/nEPuLMEjgiUzu3ri/ogC3BIGpOE45u6hcaGXKT1zCfT8hUFM9DlRNkSRxXdvJ8bvYcHE/0lWC++guNi5f9izJSDDmcIvgmQWD4ihTYXLDuUyviuS2QW6CdPqCosIISYuuD2jYqQcMLuO2RbD8hDmWE5m642PpfuICaijQ+D73mif16EEGMPbKnThJj/kGWWWyRtNOswRJP09dBKdH9rSCXRCDvIPpp14PT8Z0yNcNnrsppWHwE11xFtP9Ft/Q5Tcta3Hj3/WKydcKIad2Xk966fjjfoR4338bIb+5oJ3d7g15rPpzKXhX2/KWPwFMFYun8Rc0jdENs1OdzrrdK/p7XOLwsRE3xPxH5xmLndphNy1DqaWs/2nLRvVIGVnwyEC1UXYXZPtSGAiO1wS6LX/DIFWZQM5d/z1wvZQ8RnPrweLf65DeNf64YJwfcWNz5zj+Akjx98vv/uf1R2bi8TeuBkm5FZL2OtO+U7vJXk8kVi8NyP5bISTH7sFD+ucZb26zaW38BN+/BlmSQ53gnXgfALGlOwvbq0/Jb9f+KeHaHT+qI9Aq8PRUj/17kAFQb2b0DTuwSSFncJEZnVWvuBiojhji2t5KGdcjH92xVGOwQP5QZiebXfdsV+j6Jo+0zbKnLbWGnkZ8MjMdQLfhmeDICBwPCfhl0efQd/t09Wq0V2z3YuqGVnXrAm1QXMuXV60kBB1MN/iGQ1Cjd/hn2yXPVYgl3rJdZVdE8/3ENT5Tg4x3yf2553j5psHe2EQy8ScrbgVi0uGVH8b75EJU8Cj1sPdr2AiVxD3caQOpFd8r4V1xdp9uF8+UsE/BWx6nq3zT3X4knq7P0nHbtOb3ERc4T2jA98Wnpk+Mqa2tW3xGA5lq3fR6xWO/XWgFzBdRg0KxHA6LUzT6fHvWKtPQSMFQz5efgWvmZqRvb2fcV1/39Cj8UJ/GhX2kFibJggtW3tkQZGbElMQ1kszPqcmHH7pt6jlOuRSV7/99iOVLMraaI78pkEJjjhAGMpI2Zny7G5N4wu82XpML2epIeKqFrfbQrATg9sw2QywbJKf7mC1FIKlA+dzlN+XMW+FPb/ibb2Rjw0m5pP2faF+V7Oi1vYJXG0vnktkdgF5zaR+GyIkLaRK1oJyZcjx/qbO0weSeTyN6Sh47fHm9UtPZCRFS6/VXPj8aqaLSg/yQCNOWCNZauBgLDzR57GGyAr/t3QE1t3z8tMlnAfTcjJmqupXlnCSSQqPQn3xNIs+ma4Pjn3YwG8u1D0g6bYoLh7PMzg1cHkUOCJ9e7g05GW8auKK9jDroD7K3HTeoC7m5zG6aMuw+F1+MtCnR3a98VoU/ezJbd8z25MBS3FWC/E59Ur/3dxSFqTa8Qse5DTiH+M9/d4QA5L3D3OeEqfA8VYqNWetU1m9AanNKfcsgFWpU7Kma18XSWHLevj5JRGRSfZkVLtFamHWpCnbdnqD0Jz1NmmdeHpvlpnVLcbPk0fQZ8hPGWbcic/Kuwax6ib78eNe1PAGu2N25aRbvPS+P7Wou9Paj7rd2NRKWAS/nY7tEKT/LALPutFnjMGzNWx/lvnSMivSzogz/Gw8r6K57A+hO4pXsnzPJg+bPQKoDCukoCT27T3IdDsqncMmDdPrxoNSCcbuFOwTyWBBG6Lt0yvi0Sred922BQXCN2sMqkGSvzM0N2POGOPRz4fp/ayuj5T4GNWVp7T5jvFjRAYvJlEIPV+n58MgqTYSb7/Moa84nVx8K7a0a6Xmw+3ysDmvPkuVa0tXdw+qgRzmxT4Vek7pHaefUaRdD105+GtPYLdCgPyJIrLRQc/PTzD5NMwTx4Y0sJYDVJrlkskets8BdTli8ShY1YZQguqrUNfEIlHqD+r6AaM/4JdOxqv8mpnjO1viEhzyiwrIfxP6VPdg07tfFMnKZ9TWOUdK25e0CinNewabM3mO9+maGxeW/vOHQEteltiK9Fw2JzgBbAwkshq1NnS6zO1m6Di9jMV17bFZdPBsPch5fOraWVZytKk3NYAOEEHgKe/KrF9iKOvCkGksy5mKPQsvMwxjO67LsfR+gCNY+6/o1fmVd+y7mSDNV+6AXZaD9tCXr92ZbPUUmIxy/7LTuLqFfpg4o+U5qYz0mBO6IyJqUU4y1Lw1XcYB4cR41ePlz+aU0UwtzgcPbBZLyIw3Hnyq5tJhdG3kslPCuNH0pcrSeznJDdCVBROSqZ2Omj1xtO91beOn8TbqlF8yYo/XkTpwfRmZUxt9AiLlYuneZZb7pMi3fI72C5axecjhUEmQWuLpLidijOhUGpJqsxExJem23cfm5R9lfehMc6xfxk04W3xyI7WydJSEriIw/jbTyVaCI4weE/t2Zv2zR4TNW7gBN8ledZJh0vz5NnuayMyPxOOF0u5MoG2ZUplU9mFHPvnMxRs5eFDgRFbLDFchv65SxgLYAM/JWsOngQdaMHcE50EtHe7T5fAa2ekpvboXcpSvK6W/E954ly+Huvd7eyQsddfDJ9UXD3RzP3uxGCqX3OK4uJ9Dv1ANdHy9d9iOLMtox/5tkljF6ulZmYQ6I93vB758jqenvT8g5RPrgQlnN2fAviS/fWBK4YEv+eUpX/s3n4+/giPvEfW6g9Bty7cMPN65SE+3/nC8bT0frnLH4vKmg5l1o+I+P12moK9WQh45BAc7H4LGF7OdzbulLjvN5jNmcGkGI4KcYrFGKuYvGvnUHPLf6RJA+aKwXzFnubwD+eIg/hrX70/YV1vVUv6mEEeAFfq9lg9i8z8VF2br2X0/XxzKjnCdHEqYNfl7VGh1KEnVpqP/zCZ+zqilfI9GorRoSTcSu9FkZEvSkbl8H4JE+WgJa/vV6aAW0XFJBGSLL5b8cyKEAIXF8x29omZjV+YGojECB3xWkpK+szU5GJu6hEk355mihrALpmhjx2dZPF2Le4pW2vXv9Cc/hLku4dDBpHBP/8EkOd97S2e8mEcmGM4cBAjxip6+KP6Etcr/Yq/L1PlxeXUIWRDgAs3bRS5WFc6Td814LNpD8yNLfQn2Fws5mCcZ/NXw/04ZnpX96TltkmCIPr8wFqn5bFXo6w3fu14S8Ruk9zh3tea2hZ1Hsjzu0tDlVf3VKX1b98BZpwtrohA06qq96nh6jCv14L52q8nZ/HA6g6bE8+zT032VzjtIzO+GKPJBc5ToCV4aT+2eAGHf2PicNyiJxGqIyIO7vzIj+F/CwEiMr7wKdzDTq+ScIc62u6ZoqVWtDia9MP/dF1I7qSKRpBsrX5ZfDN1nwbmarvPWv2uQI901xIiQt5rQe7G2ZeL68SB5/gIfv3PpdQHMw5wHP8H1xr/r4UCoWfS8yqO/JEvzis1hUhifpUP1qkIRlNFS+9umXKv6HBRsblpcv5jPPLPA/MH9eXLSHlA7CVVwdokw+m1sFnVe3CKjZQFafih5XR+40b8+pF3KGxd0gk0I9qYpeX596znEs/7tpC2JUAYxwTya1liEhOZ5+kcdq/IY/lM96z4Wku1ubzilQo5Xdbj5fxWzxVn4FfmpZohOe8R4z05W9dddRRt9pz1edL33DHUzp04QAuvz3l4sQ4nD/b3Fy97fmDx/QrtXLQj/Ttoy4CRGV6jPStm/fg7Ilm5DgBDfd2OeXe/Uq8xZPHiXZ/R4HEoH8RkoXf3PmWgQTL/wCNJle/Gvpm4SROCAbyQP5cNsEi1wukpZg6yYySQ+AphFBd1ZwgGXtRiiZ6RS7XIaIKBDFeQdO5+5CuIXIi/5G8/O2luC5YRNKLuubaOCsJF+nUXnR6h8m8iaa2fTSG/v6h5P4eSOp3CtvgUStp+gS+I2iAB6wE6Rr5V6hqHhSE1yvdGSPINAO7Q9UYuwKqKQwClbp+4JUJW4jsA+SIZPFtde5daQY+Lz+nr/KsUV8Q4o7WyXeJZL9/mEqxwrrLRyHs0173+7fxOIa5qn9yWJp2jNDlmQM58Szn4O8Ss2ba1+Dq4zL8mxyXTScE9L/e/d771g/4j4fpkiKxk3GYvED10+FDeOz3ppQ7kzhfQSOMQs8QuROV0t+Y1JPyrte6li93FpJNJ2/t2xLVwWz3NdkrZXO6vh3L7woClOQtRdekHFO+K2Nv2jN7KGozjENMt2GnLdksPF0h1Je0O2QXxVpkuerNIvKJ7z4wnIR5D/5joIXXGWqqg2IlWhcNlUOMjT799yjTidMZWwEX+nqsYuWcwWsioxxhA2Ubqs/TuEy+hDv4Ttxm+Kw+W4Oo9URd+/mngcX1QT/5V6ssqecHmdhyoYZ7L032okiIq3yKAd/JIQ9KsR7uknQQvYHHtjOo1Mrcr2I8ZrPydEoedmZztt5ur627AhcjAY69f+XOeH2V1qSvFTWo2b8zQ/SeTjt0qwRX273UljpYK6TmgHDmHckpXD1vgv8KO2rxIOV7zo7NO5JeOd2dRanxV53+0ZAN0Ums2+0R+K10l8/37vl+PtSHQv9x7jewt+HT7XftORHZ/unxE9903xc9jH2xQN98iNI+9OD6WF8MWc2T9aHA6ktVql5zQc0jv1T+PjesEXy0fbjhFlFdDm/wg5ur9xsJzK5Q0TKJ06i5pMcaKhOG38oZBMm/zO88Xrh+ZwhnaHs1vfBxdCV0Hc4XBWPKJTXaN65wmMh02mD35W2tt9qz1JpMaKmb+M3x57QlpX+hsy7HiePF5fXD/m7a4+kjb7mPNa6sGXe3rJdr4x/r74B/GwPvNtfVHpOmV35K/UGrqNVQ1CFO/kPGXt0vvfm8Ed7E7IbfEjLOmlPu0H5Tvq9dZf8q4miKhM7AtaB3J8S99Jfq30PeZ3Sbm9rCtrB8SWxi1/LVuaZtnxM+15Z/LfLYNTllejCgz+oLTbo5Cyu15v7KGlRRXILM+r9nlguVp0pKjXr6Nf65d6WoGaRXa5ZykqAGjWDBULEvv7q+FNHrvUFC3/JAt57O9XBpu/X8apWQ/ODPod3lm2jskiulMWpzWiRDd342cyE2mMzrk0sv1udYn/+c/E4TLhegjgMDnull6Ht/ZGBcjymuJK5YNKLI8an1erlBJ1AF/utcoT/Y+P/FxY9my8z6TTdcOQlpSZGxf0KYWL/M76sySmts/To43I02rxE/3a0FSllP1OjWeT9UoJre2uciiLSIKRKhvfr/YkFzZReO9gNNuFAREGS0WlVhQ8u1HbjNMZRU8EIuILif7wZVcqmqHwt7sa4uobT1+yQEZl5h5nFqwQF03jDF1srYUccde6z4SsJbtT8E00Ii/yIMuyLAqNix++rSZT1N/Pbrf7gOWbQ3fklXgpgRJM26uUxDVuHfmKDdmLfOctTplODzwJNJ08y9nenUiIWo+ojN3Ivyq6z5elztHTHAesOM1TXFtLJcINsPpGQdvoc8T9Dok8+4XgSCdUAiftb/nIdObm0kPCTVbTJz7CRxSPOPg4YENkebQ3rnsRmvuz4xQ4UfPeLYJwY4G3q5dPNOQQzC8h1Z22d5zncXAr+Zr3FLjuXv4wvIYo9cN0HTFKYvGMTuWZZs4EjqNVvoxDVSNsy7Aqsgxf12KPVVhmoCq0xGHD3TJJdt+vz+fpH4KqrACu3d/IZ3xGscZ4ABp8R/AIba28d721W7yvwqA4dqis97yMgotTxXlEnSeKUV8eMOAWvy7XzoyflvKO7dRpd+rK5SGrfraQjqjyTufSb+nkAWx0PPIp+Aa2UOn4e7ua94N0w1naEvJSMHDisnjQJODQK3Sxqjq1lh55tlFrH5B9Z++5W0eM2ot997zaIHiUBfaZKSflZwddxdg34R75ZaBvCmwSVm8Yu0E7JwGntPJ3pIldpMMJruhn39fy1Xn79+69SSvVeJLOLjmMSRwG4gcUp6m619jCGZo+z/9lNOqLxwSbTDjRVXAyg5p4f8p5FHpC8BV1kdoReajK0In6bdIxmED12Ae6eD7f3Zrh+RBp7u5F05jSSzrrep35iIt48oZg08Tntufh4ctejVWfDWVgn+REustjxLnX/ZXkOHV9W+12YwpX+M8p2lix5rpoeW/nryvlwToDdIOJeo7wPYu2lMbmaJp4Or1I4S8DrsKqevj2yrnDjbZMkHJlG9csL9xr66Bv9HrUxPxxp8D9e77A1XZt7OYXqdrxNZZhZ1mk0MgQhHCIb4ielU2W7zP9eCTvKGaZvY+Pd+jku+myje4hnOpdEe9xX3z11F/UjX2zqUQ9Gy33RY8kcwLJj1eOSHxhZ84TRW+HTfXc4xXIAdlsbjhmXbbmwqfef+bgr6Z0bebkPBEEfelMvemrvZlxS11zOqRILsrNkqbtuNgC/wud5+iPhHREOf+F+NnfT0Tu/Bta2P93r4EPnP+wDV34+0n5v16IxND/37wWkH6s/+tH/e/v4f98T//He/j/uqf/8z38/16X//c9IM61BeevZB8K/jidmfO3r4XLNMXnhdfb3Q0utBQbxv+QiC4gk4ptf//C/l7t/8ur9e8V/p/Xr//1tfo/pPI/GJJvDP4joQWw/I7PavzOXfHvd+dPf6+0f/794P8C);labelBackgroundColor=none;" vertex="1" parent="LSXB3r_5FRirlL14GcBj-19">
          <mxGeometry x="481" y="5" width="61" height="70" as="geometry" />
        </mxCell>
        <mxCell id="LSXB3r_5FRirlL14GcBj-39" value="" style="fontColor=#000000;verticalAlign=middle;verticalLabelPosition=middle;labelPosition=right;align=left;html=1;outlineConnect=0;fillColor=#d6d6d6;strokeColor=#999;gradientColor=none;gradientDirection=north;strokeWidth=2;shape=stencil(pZRNUsQgEIVPwzZFgJiwnIq6djMHQAKGEkOKxIneXn4yThFnoonFAvp1N/T7FgBcDy3rBUCQDb3gI8D3AKETs4o9aycjl2mjmCMY4469iSgdOyWVUw5PMTMllfgBwAPwZwhwLY0VL9a8d02S+E4rrbnRxrow7uEqgLCs/IoPAPR4tXsYrXkV1/sppX9pnlQztt5D2EMzWu8TWqt+8Ow+Yv3M5zOJpgW9Jc1bt3sgcbJfim5Qa/zaaTzPymI/cM75RnCYZEXC7iLM+Io8oXcO/wVvzUNBSyrEVht3GVr4uCizEVKenbVLYX3OnUYQJFLKrUaq1EWVWiCpAbJzfFw75ce3ENT4KQXhCw==);labelBackgroundColor=none;rounded=0;sketch=0;" vertex="1" parent="1">
          <mxGeometry x="827" y="40" width="120" height="120" as="geometry" />
        </mxCell>
      </root>
    </mxGraphModel>
  </diagram>
</mxfile>
